<svg xmlns="http://www.w3.org/2000/svg" xmlns:xlink="http://www.w3.org/1999/xlink" width="50" zoomAndPan="magnify" viewBox="0 0 37.5 37.499999" height="50" preserveAspectRatio="xMidYMid meet" version="1.0"><defs><clipPath id="20de3d65a9"><path d="M 1.410156 0 L 35.457031 0 L 35.457031 37.007812 L 1.410156 37.007812 Z M 1.410156 0 " clip-rule="nonzero"/></clipPath></defs><g clip-path="url(#20de3d65a9)"><path fill="#000000" d="M 32.585938 0 L 4.289062 0 C 2.710938 0 1.421875 1.289062 1.421875 2.878906 L 1.421875 29.144531 C 1.421875 30.730469 2.710938 32.023438 4.289062 32.023438 L 21.375 32.023438 L 21.273438 33.289062 C 21.234375 33.765625 21.472656 34.199219 21.898438 34.425781 C 22.3125 34.644531 22.816406 34.589844 23.179688 34.292969 L 25.765625 32.167969 C 25.769531 32.167969 25.769531 32.167969 25.769531 32.164062 C 25.773438 32.164062 25.773438 32.167969 25.777344 32.167969 C 25.78125 32.167969 25.785156 32.167969 25.789062 32.167969 C 25.789062 32.167969 25.789062 32.171875 25.792969 32.175781 L 28.234375 36.421875 C 28.449219 36.796875 28.84375 37.007812 29.246094 37.007812 C 29.445312 37.007812 29.648438 36.957031 29.832031 36.851562 L 32.105469 35.53125 C 32.664062 35.207031 32.855469 34.488281 32.53125 33.929688 L 31.4375 32.023438 L 32.582031 32.023438 C 34.164062 32.023438 35.449219 30.734375 35.449219 29.144531 L 35.449219 2.878906 C 35.449219 1.289062 34.164062 0 32.585938 0 Z M 4.289062 1.15625 L 32.585938 1.15625 C 33.53125 1.15625 34.300781 1.925781 34.300781 2.875 L 34.300781 5.597656 L 2.574219 5.597656 L 2.574219 2.878906 C 2.574219 1.929688 3.34375 1.15625 4.289062 1.15625 Z M 31.53125 34.527344 L 29.257812 35.847656 C 29.25 35.851562 29.234375 35.847656 29.230469 35.84375 L 26.792969 31.601562 C 26.617188 31.296875 26.332031 31.09375 25.988281 31.03125 C 25.914062 31.015625 25.84375 31.007812 25.769531 31.007812 C 25.503906 31.007812 25.25 31.101562 25.039062 31.277344 L 22.453125 33.398438 C 22.445312 33.402344 22.441406 33.402344 22.441406 33.40625 C 22.441406 33.40625 22.4375 33.402344 22.433594 33.402344 C 22.425781 33.398438 22.421875 33.394531 22.421875 33.394531 C 22.421875 33.394531 22.421875 33.390625 22.421875 33.382812 L 23.261719 22.816406 C 23.261719 22.8125 23.261719 22.808594 23.261719 22.808594 C 23.265625 22.808594 23.265625 22.804688 23.269531 22.804688 C 23.277344 22.800781 23.277344 22.800781 23.277344 22.796875 C 23.28125 22.796875 23.285156 22.800781 23.289062 22.800781 L 32.816406 27.351562 C 32.824219 27.355469 32.828125 27.359375 32.828125 27.359375 C 32.828125 27.359375 32.832031 27.363281 32.828125 27.375 C 32.828125 27.378906 32.828125 27.382812 32.828125 27.382812 C 32.828125 27.382812 32.824219 27.386719 32.820312 27.386719 L 29.691406 28.574219 C 29.371094 28.699219 29.128906 28.949219 29.007812 29.277344 C 28.890625 29.605469 28.921875 29.953125 29.09375 30.257812 C 29.09375 30.257812 29.097656 30.257812 29.097656 30.261719 L 31.539062 34.503906 C 31.542969 34.515625 31.539062 34.523438 31.53125 34.527344 Z M 32.585938 30.867188 L 30.773438 30.867188 L 30.09375 29.683594 C 30.09375 29.679688 30.089844 29.675781 30.089844 29.675781 C 30.089844 29.675781 30.089844 29.671875 30.089844 29.667969 C 30.09375 29.664062 30.09375 29.660156 30.09375 29.660156 C 30.097656 29.65625 30.097656 29.65625 30.101562 29.65625 L 33.226562 28.46875 C 33.667969 28.300781 33.964844 27.886719 33.980469 27.421875 C 34 26.945312 33.746094 26.519531 33.316406 26.3125 L 23.78125 21.757812 C 23.429688 21.589844 23.03125 21.605469 22.699219 21.800781 C 22.359375 21.996094 22.144531 22.332031 22.113281 22.726562 L 21.46875 30.867188 L 4.289062 30.867188 C 3.34375 30.867188 2.574219 30.09375 2.574219 29.144531 L 2.574219 6.753906 L 34.300781 6.753906 L 34.300781 29.144531 C 34.300781 30.09375 33.53125 30.867188 32.585938 30.867188 Z M 6.289062 4.816406 C 7.078125 4.816406 7.722656 4.167969 7.722656 3.375 C 7.722656 2.582031 7.078125 1.9375 6.289062 1.9375 C 5.496094 1.9375 4.855469 2.582031 4.855469 3.375 C 4.855469 4.167969 5.496094 4.816406 6.289062 4.816406 Z M 6.289062 3.09375 C 6.441406 3.09375 6.570312 3.222656 6.570312 3.375 C 6.570312 3.53125 6.445312 3.660156 6.289062 3.660156 C 6.132812 3.660156 6.003906 3.53125 6.003906 3.375 C 6.003906 3.222656 6.132812 3.09375 6.289062 3.09375 Z M 9.609375 4.816406 C 10.402344 4.816406 11.042969 4.167969 11.042969 3.375 C 11.042969 2.582031 10.402344 1.9375 9.609375 1.9375 C 8.820312 1.9375 8.175781 2.582031 8.175781 3.375 C 8.175781 4.167969 8.820312 4.816406 9.609375 4.816406 Z M 9.609375 3.09375 C 9.765625 3.09375 9.894531 3.222656 9.894531 3.375 C 9.894531 3.53125 9.765625 3.660156 9.609375 3.660156 C 9.453125 3.660156 9.328125 3.53125 9.328125 3.375 C 9.328125 3.222656 9.457031 3.09375 9.609375 3.09375 Z M 12.933594 4.816406 C 13.722656 4.816406 14.367188 4.167969 14.367188 3.375 C 14.367188 2.582031 13.722656 1.9375 12.933594 1.9375 C 12.144531 1.9375 11.5 2.582031 11.5 3.375 C 11.5 4.167969 12.144531 4.816406 12.933594 4.816406 Z M 12.933594 3.09375 C 13.085938 3.09375 13.214844 3.222656 13.214844 3.375 C 13.214844 3.53125 13.089844 3.660156 12.933594 3.660156 C 12.777344 3.660156 12.652344 3.53125 12.652344 3.375 C 12.652344 3.222656 12.777344 3.09375 12.933594 3.09375 Z M 16.039062 3.375 C 16.039062 3.058594 16.296875 2.800781 16.613281 2.800781 L 31.441406 2.800781 C 31.761719 2.800781 32.019531 3.058594 32.019531 3.375 C 32.019531 3.695312 31.761719 3.953125 31.441406 3.953125 L 16.617188 3.953125 C 16.296875 3.953125 16.039062 3.695312 16.039062 3.375 Z M 18.4375 9.34375 L 15.742188 9.34375 C 15.421875 9.34375 15.167969 9.605469 15.167969 9.921875 L 15.167969 18.988281 C 15.167969 19.304688 15.425781 19.5625 15.742188 19.5625 L 18.4375 19.5625 C 20.238281 19.5625 21.707031 18.09375 21.707031 16.28125 L 21.707031 12.628906 C 21.707031 10.816406 20.238281 9.34375 18.4375 9.34375 Z M 20.554688 16.28125 C 20.554688 17.457031 19.605469 18.410156 18.4375 18.410156 L 16.316406 18.410156 L 16.316406 10.5 L 18.4375 10.5 C 19.605469 10.5 20.554688 11.453125 20.554688 12.628906 Z M 6.96875 19.566406 C 7.285156 19.566406 7.542969 19.304688 7.542969 18.988281 L 7.542969 15.03125 L 11.78125 15.03125 L 11.78125 18.988281 C 11.78125 19.304688 12.039062 19.566406 12.355469 19.566406 C 12.671875 19.566406 12.929688 19.304688 12.929688 18.988281 L 12.929688 12.628906 C 12.929688 10.816406 11.464844 9.34375 9.664062 9.34375 C 7.859375 9.34375 6.390625 10.816406 6.390625 12.628906 L 6.390625 18.988281 C 6.390625 19.304688 6.648438 19.566406 6.96875 19.566406 Z M 9.664062 10.5 C 10.832031 10.5 11.78125 11.453125 11.78125 12.628906 L 11.78125 13.878906 L 7.542969 13.878906 L 7.542969 12.628906 C 7.542969 11.453125 8.496094 10.5 9.664062 10.5 Z M 25.09375 12.1875 C 25.09375 13.121094 25.847656 13.878906 26.777344 13.878906 L 27.652344 13.878906 C 29.214844 13.878906 30.484375 15.152344 30.484375 16.722656 C 30.484375 18.289062 29.214844 19.566406 27.652344 19.566406 L 26.777344 19.566406 C 25.214844 19.566406 23.941406 18.289062 23.941406 16.722656 C 23.941406 16.402344 24.199219 16.144531 24.519531 16.144531 C 24.835938 16.144531 25.09375 16.402344 25.09375 16.722656 C 25.09375 17.652344 25.847656 18.410156 26.773438 18.410156 L 27.648438 18.410156 C 28.578125 18.410156 29.332031 17.652344 29.332031 16.722656 C 29.332031 15.789062 28.578125 15.03125 27.648438 15.03125 L 26.773438 15.03125 C 25.210938 15.03125 23.941406 13.757812 23.941406 12.1875 C 23.941406 10.621094 25.210938 9.34375 26.773438 9.34375 L 27.648438 9.34375 C 29.210938 9.34375 30.484375 10.621094 30.484375 12.1875 C 30.484375 12.507812 30.226562 12.765625 29.90625 12.765625 C 29.589844 12.765625 29.332031 12.507812 29.332031 12.1875 C 29.332031 11.257812 28.578125 10.5 27.652344 10.5 L 26.777344 10.5 C 25.847656 10.5 25.09375 11.257812 25.09375 12.1875 Z M 19.011719 23 C 19.011719 23.320312 18.753906 23.578125 18.4375 23.578125 L 6.96875 23.578125 C 6.648438 23.578125 6.394531 23.320312 6.394531 23 C 6.394531 22.683594 6.652344 22.421875 6.96875 22.421875 L 18.4375 22.421875 C 18.753906 22.421875 19.011719 22.683594 19.011719 23 Z M 19.011719 27.699219 C 19.011719 28.015625 18.753906 28.277344 18.4375 28.277344 L 6.96875 28.277344 C 6.648438 28.277344 6.394531 28.015625 6.394531 27.699219 C 6.394531 27.378906 6.652344 27.121094 6.96875 27.121094 L 18.4375 27.121094 C 18.753906 27.121094 19.011719 27.378906 19.011719 27.699219 Z M 19.011719 27.699219 " fill-opacity="1" fill-rule="nonzero"/></g></svg>