<svg xmlns="http://www.w3.org/2000/svg" xmlns:xlink="http://www.w3.org/1999/xlink" width="50" zoomAndPan="magnify" viewBox="0 0 37.5 37.499999" height="50" preserveAspectRatio="xMidYMid meet" version="1.0"><defs><clipPath id="b293bf9242"><path d="M 0 0.808594 L 37.007812 0.808594 L 37.007812 36.335938 L 0 36.335938 Z M 0 0.808594 " clip-rule="nonzero"/></clipPath></defs><g clip-path="url(#b293bf9242)"><path fill="#242424" d="M 18.503906 0.820312 C 20.554688 0.820312 21.050781 3.714844 19.109375 4.398438 C 19.085938 4.40625 19.074219 4.429688 19.074219 4.453125 L 19.074219 8.902344 C 19.074219 8.921875 19.089844 8.941406 19.109375 8.941406 L 21.816406 8.941406 C 21.835938 8.941406 21.851562 8.925781 21.851562 8.90625 C 21.851562 7.875 21.847656 7.222656 21.847656 6.957031 C 21.839844 6.5 21.871094 6.179688 21.9375 5.992188 C 22.222656 5.160156 22.917969 4.640625 23.796875 4.617188 C 24.039062 4.613281 24.585938 4.609375 25.4375 4.613281 C 25.460938 4.613281 25.484375 4.597656 25.492188 4.574219 C 25.671875 4.152344 25.910156 3.847656 26.207031 3.660156 C 26.726562 3.332031 27.273438 3.265625 27.851562 3.460938 C 29.019531 3.863281 29.417969 5.304688 28.714844 6.277344 C 28.347656 6.785156 27.742188 7.074219 27.109375 7.03125 C 26.484375 6.988281 25.996094 6.683594 25.636719 6.121094 C 25.632812 6.117188 25.628906 6.113281 25.628906 6.105469 L 25.5 5.820312 C 25.488281 5.789062 25.457031 5.773438 25.425781 5.773438 C 24.871094 5.777344 24.433594 5.777344 24.117188 5.773438 C 23.742188 5.765625 23.5 5.800781 23.398438 5.875 C 23.089844 6.09375 22.992188 6.324219 22.996094 6.738281 C 22.996094 7.132812 22.996094 7.859375 22.996094 8.910156 C 22.996094 8.929688 23.007812 8.941406 23.027344 8.941406 C 23.6875 8.929688 24.269531 8.933594 24.773438 8.949219 C 26.324219 9 27.675781 10.140625 28.007812 11.664062 C 28.070312 11.949219 28.097656 12.339844 28.09375 12.839844 C 28.089844 12.867188 28.089844 13.261719 28.089844 14.023438 C 28.089844 14.050781 28.109375 14.070312 28.136719 14.070312 C 29.804688 14.0625 30.71875 14.0625 30.878906 14.066406 C 31.277344 14.074219 31.53125 14.042969 31.640625 13.972656 C 31.976562 13.757812 32.070312 13.515625 32.070312 13.085938 C 32.070312 12.859375 32.066406 12.363281 32.066406 11.601562 C 32.066406 11.578125 32.050781 11.554688 32.027344 11.546875 C 30.582031 11.019531 30.363281 9.058594 31.6875 8.238281 C 33.140625 7.34375 34.929688 8.777344 34.386719 10.394531 C 34.207031 10.933594 33.832031 11.320312 33.273438 11.550781 C 33.238281 11.5625 33.214844 11.597656 33.21875 11.632812 C 33.222656 12.308594 33.21875 12.871094 33.214844 13.324219 C 33.207031 14.136719 32.640625 14.835938 31.894531 15.109375 C 31.683594 15.183594 31.363281 15.222656 30.929688 15.214844 C 30.578125 15.210938 29.644531 15.210938 28.128906 15.210938 C 28.109375 15.210938 28.089844 15.230469 28.089844 15.25 L 28.089844 17.957031 C 28.089844 17.980469 28.109375 18 28.128906 18 L 33.367188 18 C 33.394531 18 33.421875 17.984375 33.433594 17.960938 C 33.4375 17.957031 33.46875 17.886719 33.523438 17.753906 C 33.695312 17.339844 34.128906 16.992188 34.527344 16.84375 C 35.71875 16.410156 37.007812 17.28125 37.007812 18.574219 C 37.007812 19.867188 35.71875 20.738281 34.527344 20.300781 C 34.128906 20.15625 33.695312 19.804688 33.523438 19.390625 C 33.46875 19.261719 33.4375 19.191406 33.433594 19.1875 C 33.421875 19.164062 33.394531 19.148438 33.367188 19.148438 L 28.128906 19.148438 C 28.109375 19.148438 28.089844 19.164062 28.089844 19.191406 L 28.089844 21.894531 C 28.089844 21.917969 28.109375 21.9375 28.128906 21.9375 C 29.644531 21.9375 30.578125 21.933594 30.929688 21.929688 C 31.363281 21.925781 31.683594 21.960938 31.894531 22.039062 C 32.640625 22.3125 33.207031 23.011719 33.214844 23.820312 C 33.21875 24.273438 33.21875 24.839844 33.21875 25.515625 C 33.214844 25.550781 33.238281 25.582031 33.273438 25.597656 C 33.832031 25.824219 34.207031 26.210938 34.386719 26.75 C 34.929688 28.367188 33.140625 29.800781 31.6875 28.90625 C 30.363281 28.085938 30.582031 26.125 32.027344 25.597656 C 32.050781 25.589844 32.066406 25.566406 32.066406 25.542969 C 32.066406 24.78125 32.066406 24.289062 32.070312 24.0625 C 32.070312 23.632812 31.976562 23.386719 31.640625 23.171875 C 31.53125 23.101562 31.277344 23.074219 30.878906 23.082031 C 30.71875 23.082031 29.804688 23.082031 28.136719 23.078125 C 28.109375 23.078125 28.089844 23.097656 28.089844 23.121094 C 28.089844 23.882812 28.089844 24.28125 28.09375 24.308594 C 28.097656 24.804688 28.070312 25.195312 28.007812 25.480469 C 27.675781 27.003906 26.324219 28.144531 24.773438 28.195312 C 24.269531 28.210938 23.6875 28.214844 23.027344 28.203125 C 23.007812 28.203125 22.996094 28.21875 22.996094 28.234375 C 22.996094 29.285156 22.996094 30.011719 22.996094 30.410156 C 22.992188 30.820312 23.089844 31.050781 23.398438 31.269531 C 23.5 31.347656 23.742188 31.378906 24.117188 31.371094 C 24.433594 31.367188 24.871094 31.367188 25.425781 31.375 C 25.457031 31.375 25.488281 31.355469 25.5 31.324219 L 25.628906 31.039062 C 25.628906 31.035156 25.632812 31.027344 25.636719 31.023438 C 25.996094 30.460938 26.484375 30.160156 27.109375 30.113281 C 27.742188 30.070312 28.347656 30.359375 28.714844 30.867188 C 29.417969 31.84375 29.015625 33.285156 27.847656 33.683594 C 27.273438 33.882812 26.726562 33.816406 26.207031 33.488281 C 25.910156 33.300781 25.671875 32.992188 25.492188 32.570312 C 25.484375 32.546875 25.460938 32.53125 25.4375 32.53125 C 24.585938 32.535156 24.039062 32.535156 23.796875 32.527344 C 22.917969 32.507812 22.222656 31.984375 21.9375 31.15625 C 21.871094 30.964844 21.839844 30.644531 21.847656 30.1875 C 21.847656 29.921875 21.851562 29.273438 21.851562 28.238281 C 21.851562 28.222656 21.835938 28.207031 21.816406 28.207031 L 19.109375 28.207031 C 19.089844 28.207031 19.074219 28.222656 19.074219 28.242188 L 19.070312 32.695312 C 19.070312 32.71875 19.085938 32.738281 19.109375 32.746094 C 21.050781 33.429688 20.550781 36.328125 18.503906 36.328125 C 16.453125 36.328125 15.957031 33.429688 17.894531 32.746094 C 17.917969 32.738281 17.933594 32.71875 17.933594 32.695312 L 17.933594 28.242188 C 17.933594 28.222656 17.917969 28.207031 17.898438 28.207031 L 15.191406 28.207031 C 15.171875 28.207031 15.15625 28.222656 15.15625 28.238281 C 15.15625 29.273438 15.15625 29.921875 15.160156 30.1875 C 15.164062 30.644531 15.136719 30.964844 15.070312 31.15625 C 14.78125 31.984375 14.089844 32.507812 13.210938 32.527344 C 12.964844 32.535156 12.417969 32.535156 11.570312 32.53125 C 11.546875 32.53125 11.523438 32.546875 11.511719 32.570312 C 11.332031 32.992188 11.097656 33.300781 10.800781 33.488281 C 10.28125 33.816406 9.730469 33.882812 9.15625 33.683594 C 7.988281 33.285156 7.589844 31.84375 8.292969 30.867188 C 8.660156 30.359375 9.261719 30.070312 9.894531 30.113281 C 10.519531 30.160156 11.011719 30.460938 11.371094 31.023438 C 11.375 31.027344 11.375 31.035156 11.378906 31.039062 L 11.503906 31.324219 C 11.519531 31.355469 11.546875 31.375 11.578125 31.375 C 12.136719 31.367188 12.574219 31.367188 12.886719 31.371094 C 13.265625 31.378906 13.503906 31.34375 13.609375 31.269531 C 13.917969 31.050781 14.011719 30.820312 14.011719 30.410156 C 14.011719 30.011719 14.011719 29.285156 14.011719 28.234375 C 14.011719 28.21875 13.996094 28.203125 13.980469 28.203125 C 13.320312 28.214844 12.738281 28.210938 12.234375 28.195312 C 10.679688 28.144531 9.332031 27.003906 8.996094 25.480469 C 8.9375 25.195312 8.910156 24.804688 8.914062 24.308594 C 8.914062 24.277344 8.914062 23.882812 8.914062 23.121094 C 8.914062 23.097656 8.894531 23.078125 8.871094 23.078125 C 7.203125 23.082031 6.289062 23.082031 6.128906 23.078125 C 5.730469 23.070312 5.476562 23.101562 5.367188 23.171875 C 5.03125 23.386719 4.9375 23.628906 4.9375 24.058594 C 4.9375 24.289062 4.9375 24.78125 4.9375 25.542969 C 4.9375 25.566406 4.953125 25.589844 4.976562 25.597656 C 6.425781 26.125 6.644531 28.085938 5.316406 28.90625 C 3.867188 29.800781 2.078125 28.367188 2.621094 26.75 C 2.800781 26.210938 3.171875 25.824219 3.734375 25.597656 C 3.769531 25.582031 3.789062 25.550781 3.789062 25.511719 C 3.785156 24.839844 3.785156 24.273438 3.792969 23.820312 C 3.800781 23.011719 4.363281 22.308594 5.109375 22.039062 C 5.324219 21.960938 5.644531 21.925781 6.078125 21.929688 C 6.425781 21.933594 7.359375 21.9375 8.875 21.9375 C 8.898438 21.9375 8.917969 21.917969 8.917969 21.894531 L 8.917969 19.191406 C 8.917969 19.164062 8.898438 19.148438 8.875 19.148438 L 3.636719 19.148438 C 3.609375 19.148438 3.585938 19.160156 3.570312 19.1875 C 3.570312 19.191406 3.539062 19.257812 3.484375 19.390625 C 3.308594 19.804688 2.878906 20.152344 2.476562 20.300781 C 1.285156 20.738281 0 19.867188 0 18.574219 C 0 17.28125 1.285156 16.410156 2.476562 16.84375 C 2.878906 16.992188 3.308594 17.339844 3.484375 17.753906 C 3.539062 17.886719 3.570312 17.953125 3.570312 17.960938 C 3.585938 17.984375 3.609375 18 3.636719 18 L 8.875 18 C 8.898438 18 8.917969 17.980469 8.917969 17.957031 L 8.917969 15.25 C 8.917969 15.226562 8.898438 15.210938 8.875 15.210938 C 7.359375 15.207031 6.425781 15.210938 6.078125 15.214844 C 5.644531 15.222656 5.324219 15.183594 5.109375 15.109375 C 4.363281 14.835938 3.800781 14.136719 3.792969 13.324219 C 3.785156 12.871094 3.785156 12.308594 3.789062 11.632812 C 3.789062 11.59375 3.769531 11.5625 3.734375 11.550781 C 3.171875 11.320312 2.800781 10.933594 2.621094 10.394531 C 2.078125 8.777344 3.867188 7.34375 5.316406 8.238281 C 6.644531 9.058594 6.425781 11.019531 4.976562 11.546875 C 4.953125 11.554688 4.9375 11.578125 4.9375 11.601562 C 4.9375 12.363281 4.9375 12.859375 4.9375 13.085938 C 4.9375 13.515625 5.03125 13.757812 5.367188 13.972656 C 5.476562 14.042969 5.730469 14.074219 6.128906 14.066406 C 6.289062 14.0625 7.203125 14.0625 8.871094 14.070312 C 8.894531 14.070312 8.914062 14.046875 8.914062 14.023438 C 8.914062 13.261719 8.914062 12.867188 8.914062 12.839844 C 8.910156 12.339844 8.9375 11.949219 8.996094 11.664062 C 9.332031 10.140625 10.679688 9 12.234375 8.949219 C 12.738281 8.933594 13.320312 8.929688 13.980469 8.941406 C 13.996094 8.941406 14.011719 8.929688 14.011719 8.910156 C 14.011719 7.859375 14.011719 7.132812 14.011719 6.738281 C 14.011719 6.324219 13.917969 6.09375 13.609375 5.875 C 13.503906 5.800781 13.265625 5.765625 12.886719 5.773438 C 12.574219 5.777344 12.136719 5.777344 11.582031 5.773438 C 11.546875 5.769531 11.519531 5.789062 11.507812 5.820312 L 11.378906 6.105469 C 11.375 6.113281 11.375 6.117188 11.371094 6.121094 C 11.011719 6.683594 10.519531 6.988281 9.894531 7.03125 C 9.261719 7.074219 8.660156 6.785156 8.292969 6.277344 C 7.589844 5.304688 7.988281 3.863281 9.15625 3.460938 C 9.730469 3.265625 10.28125 3.332031 10.800781 3.660156 C 11.097656 3.847656 11.332031 4.152344 11.511719 4.574219 C 11.523438 4.597656 11.546875 4.613281 11.570312 4.613281 C 12.421875 4.609375 12.964844 4.613281 13.210938 4.617188 C 14.089844 4.640625 14.785156 5.160156 15.070312 5.992188 C 15.136719 6.179688 15.164062 6.5 15.160156 6.957031 C 15.15625 7.222656 15.15625 7.875 15.15625 8.90625 C 15.15625 8.925781 15.171875 8.941406 15.191406 8.941406 L 17.898438 8.941406 C 17.917969 8.941406 17.933594 8.921875 17.933594 8.902344 L 17.933594 4.453125 C 17.933594 4.429688 17.917969 4.40625 17.894531 4.398438 C 15.957031 3.714844 16.453125 0.820312 18.503906 0.820312 M 19.1875 2.660156 C 19.1875 2.277344 18.878906 1.96875 18.5 1.96875 C 18.121094 1.96875 17.816406 2.277344 17.816406 2.660156 C 17.816406 3.039062 18.121094 3.347656 18.5 3.347656 C 18.878906 3.347656 19.1875 3.039062 19.1875 2.660156 M 10.460938 5.195312 C 10.460938 4.816406 10.152344 4.507812 9.777344 4.507812 C 9.398438 4.507812 9.09375 4.816406 9.09375 5.195312 C 9.09375 5.574219 9.398438 5.878906 9.777344 5.878906 C 10.152344 5.878906 10.460938 5.574219 10.460938 5.195312 M 27.914062 5.195312 C 27.914062 4.816406 27.609375 4.507812 27.230469 4.507812 C 26.851562 4.507812 26.546875 4.816406 26.546875 5.195312 C 26.546875 5.574219 26.851562 5.882812 27.230469 5.882812 C 27.609375 5.882812 27.914062 5.574219 27.914062 5.195312 M 5.050781 9.8125 C 5.050781 9.433594 4.742188 9.125 4.363281 9.125 C 3.988281 9.125 3.679688 9.433594 3.679688 9.8125 C 3.679688 10.191406 3.988281 10.5 4.363281 10.5 C 4.742188 10.5 5.050781 10.191406 5.050781 9.8125 M 33.328125 9.8125 C 33.328125 9.433594 33.023438 9.125 32.644531 9.125 C 32.265625 9.125 31.957031 9.433594 31.957031 9.8125 C 31.957031 10.195312 32.265625 10.5 32.644531 10.5 C 33.023438 10.5 33.328125 10.195312 33.328125 9.8125 M 26.953125 12.441406 C 26.953125 11.148438 25.90625 10.097656 24.617188 10.097656 L 12.394531 10.097656 C 11.105469 10.097656 10.0625 11.148438 10.0625 12.441406 L 10.0625 24.707031 C 10.0625 26 11.105469 27.046875 12.394531 27.046875 L 24.617188 27.046875 C 25.90625 27.046875 26.953125 26 26.953125 24.707031 L 26.953125 12.441406 M 2.523438 18.566406 C 2.523438 18.1875 2.21875 17.878906 1.839844 17.878906 C 1.460938 17.878906 1.152344 18.1875 1.152344 18.566406 C 1.152344 18.949219 1.460938 19.257812 1.839844 19.257812 C 2.21875 19.257812 2.523438 18.949219 2.523438 18.566406 M 35.851562 18.566406 C 35.851562 18.1875 35.542969 17.882812 35.167969 17.882812 C 34.789062 17.882812 34.484375 18.1875 34.484375 18.566406 C 34.484375 18.945312 34.789062 19.253906 35.167969 19.253906 C 35.542969 19.253906 35.851562 18.945312 35.851562 18.566406 M 5.050781 27.335938 C 5.050781 26.953125 4.742188 26.648438 4.363281 26.648438 C 3.988281 26.648438 3.679688 26.953125 3.679688 27.335938 C 3.679688 27.714844 3.988281 28.023438 4.363281 28.023438 C 4.742188 28.023438 5.050781 27.714844 5.050781 27.335938 M 33.328125 27.332031 C 33.328125 26.953125 33.023438 26.644531 32.644531 26.644531 C 32.265625 26.644531 31.960938 26.953125 31.960938 27.332031 C 31.960938 27.710938 32.265625 28.019531 32.644531 28.019531 C 33.023438 28.019531 33.328125 27.710938 33.328125 27.332031 M 10.460938 31.953125 C 10.460938 31.574219 10.152344 31.265625 9.777344 31.265625 C 9.398438 31.265625 9.09375 31.574219 9.09375 31.953125 C 9.09375 32.332031 9.398438 32.636719 9.777344 32.636719 C 10.152344 32.636719 10.460938 32.332031 10.460938 31.953125 M 27.914062 31.953125 C 27.914062 31.570312 27.609375 31.261719 27.230469 31.261719 C 26.851562 31.261719 26.546875 31.570312 26.546875 31.953125 C 26.546875 32.332031 26.851562 32.640625 27.230469 32.640625 C 27.609375 32.640625 27.914062 32.332031 27.914062 31.953125 M 19.183594 34.488281 C 19.183594 34.109375 18.878906 33.800781 18.5 33.800781 C 18.121094 33.800781 17.816406 34.109375 17.816406 34.488281 C 17.816406 34.867188 18.121094 35.175781 18.5 35.175781 C 18.878906 35.175781 19.183594 34.867188 19.183594 34.488281 Z M 19.183594 34.488281 " fill-opacity="1" fill-rule="nonzero"/></g><path fill="#242424" d="M 16.675781 20.59375 C 15.675781 20.589844 15.171875 20.589844 15.164062 20.589844 C 15.148438 20.589844 15.136719 20.601562 15.128906 20.621094 L 14.484375 22.503906 C 14.476562 22.53125 14.453125 22.546875 14.425781 22.546875 L 12.730469 22.539062 C 12.707031 22.539062 12.691406 22.515625 12.699219 22.496094 L 15.722656 14.429688 C 15.730469 14.40625 15.753906 14.390625 15.777344 14.390625 C 16.027344 14.390625 16.328125 14.386719 16.6875 14.390625 C 17.046875 14.390625 17.351562 14.390625 17.597656 14.394531 C 17.621094 14.394531 17.644531 14.410156 17.652344 14.433594 L 20.640625 22.511719 C 20.648438 22.535156 20.636719 22.554688 20.613281 22.554688 L 18.914062 22.554688 C 18.890625 22.554688 18.863281 22.539062 18.855469 22.515625 L 18.21875 20.625 C 18.214844 20.609375 18.199219 20.597656 18.183594 20.597656 C 18.175781 20.59375 17.675781 20.59375 16.675781 20.59375 M 15.652344 19.089844 C 15.648438 19.105469 15.660156 19.121094 15.675781 19.121094 L 17.675781 19.128906 C 17.695312 19.128906 17.707031 19.113281 17.699219 19.097656 L 16.710938 16.210938 C 16.703125 16.1875 16.671875 16.1875 16.664062 16.210938 Z M 15.652344 19.089844 " fill-opacity="1" fill-rule="nonzero"/><path fill="#242424" d="M 23.304688 22.523438 C 23.304688 22.539062 23.292969 22.550781 23.277344 22.550781 L 21.742188 22.550781 C 21.726562 22.550781 21.710938 22.539062 21.710938 22.523438 L 21.710938 14.421875 C 21.710938 14.402344 21.726562 14.390625 21.742188 14.390625 L 23.277344 14.390625 C 23.292969 14.390625 23.304688 14.402344 23.304688 14.421875 Z M 23.304688 22.523438 " fill-opacity="1" fill-rule="nonzero"/></svg>