<svg xmlns="http://www.w3.org/2000/svg" xmlns:xlink="http://www.w3.org/1999/xlink" width="50" zoomAndPan="magnify" viewBox="0 0 37.5 37.499999" height="50" preserveAspectRatio="xMidYMid meet" version="1.0"><defs><clipPath id="1441537dcb"><path d="M 0 3.191406 L 34 3.191406 L 34 33.539062 L 0 33.539062 Z M 0 3.191406 " clip-rule="nonzero"/></clipPath><clipPath id="47ed12852e"><path d="M 28 7 L 37.007812 7 L 37.007812 17 L 28 17 Z M 28 7 " clip-rule="nonzero"/></clipPath></defs><g clip-path="url(#1441537dcb)"><path fill="#333333" d="M 27.574219 10.789062 C 27.476562 10.691406 27.355469 10.632812 27.21875 10.613281 C 27.082031 10.59375 26.949219 10.617188 26.828125 10.683594 L 19.234375 14.871094 C 19.105469 14.941406 19.011719 15.046875 18.957031 15.1875 L 14.054688 27.644531 C 13.957031 27.894531 14.003906 28.117188 14.195312 28.304688 L 14.351562 28.457031 C 14.472656 28.578125 14.621094 28.640625 14.792969 28.640625 C 14.964844 28.640625 15.113281 28.578125 15.234375 28.457031 L 22.199219 21.554688 C 22.273438 21.480469 22.363281 21.441406 22.472656 21.441406 C 22.578125 21.441406 22.671875 21.476562 22.746094 21.554688 C 22.820312 21.628906 22.859375 21.71875 22.859375 21.824219 C 22.859375 21.929688 22.820312 22.023438 22.742188 22.097656 L 15.777344 28.996094 C 15.628906 29.148438 15.570312 29.324219 15.605469 29.535156 C 14.574219 30.550781 13.382812 31.40625 12.042969 31.988281 C 10.804688 32.523438 9.445312 32.796875 8.085938 32.621094 L 8.015625 32.609375 C 7.972656 32.601562 7.929688 32.59375 7.882812 32.585938 C 7.804688 32.574219 7.722656 32.558594 7.640625 32.539062 C 7.480469 32.503906 7.324219 32.464844 7.164062 32.417969 C 6.984375 32.363281 6.8125 32.296875 6.636719 32.230469 C 6.628906 32.226562 6.625 32.222656 6.621094 32.222656 C 6.617188 32.222656 6.609375 32.21875 6.605469 32.214844 C 6.566406 32.199219 6.527344 32.179688 6.488281 32.164062 C 6.394531 32.121094 6.304688 32.078125 6.214844 32.03125 C 5.992188 31.917969 5.773438 31.789062 5.566406 31.652344 C 5.507812 31.613281 5.445312 31.570312 5.386719 31.527344 C 5.359375 31.507812 5.332031 31.488281 5.304688 31.46875 C 5.292969 31.457031 5.28125 31.449219 5.269531 31.441406 L 5.25 31.425781 C 5.125 31.328125 5.003906 31.222656 4.882812 31.117188 C 4.636719 30.886719 4.402344 30.628906 4.222656 30.375 C 3.753906 29.710938 3.476562 28.976562 3.390625 28.171875 C 3.304688 27.386719 3.382812 26.621094 3.574219 25.863281 C 3.660156 25.523438 3.765625 25.1875 3.890625 24.859375 C 3.921875 24.78125 3.953125 24.703125 3.984375 24.628906 C 4.011719 24.554688 4.011719 24.554688 4.054688 24.460938 C 4.113281 24.332031 4.171875 24.199219 4.238281 24.070312 C 5.023438 22.503906 6.121094 21.121094 7.003906 19.609375 C 7.867188 18.132812 8.570312 16.433594 8.414062 14.691406 C 8.339844 13.855469 8.070312 13.042969 7.566406 12.355469 C 7.085938 11.699219 6.460938 11.175781 5.785156 10.71875 C 4.46875 9.835938 2.921875 9.261719 1.746094 8.175781 C 1.5 7.949219 1.25 7.699219 1.070312 7.417969 C 1.042969 7.375 1.019531 7.332031 0.996094 7.292969 C 0.984375 7.269531 0.972656 7.246094 0.960938 7.222656 C 0.957031 7.21875 0.941406 7.183594 0.933594 7.164062 C 0.925781 7.148438 0.917969 7.125 0.914062 7.117188 C 0.90625 7.09375 0.894531 7.066406 0.886719 7.042969 C 0.867188 6.984375 0.847656 6.925781 0.832031 6.867188 C 0.816406 6.804688 0.800781 6.742188 0.789062 6.679688 C 0.78125 6.648438 0.777344 6.617188 0.769531 6.589844 C 0.769531 6.570312 0.757812 6.511719 0.757812 6.515625 C 0.742188 6.375 0.734375 6.234375 0.730469 6.09375 C 0.726562 5.753906 0.753906 5.414062 0.816406 5.082031 C 0.894531 4.65625 1.007812 4.238281 1.140625 3.828125 C 1.285156 3.386719 0.585938 3.199219 0.445312 3.636719 C 0.191406 4.421875 0 5.25 0.0117188 6.078125 C 0.015625 6.636719 0.121094 7.214844 0.40625 7.707031 C 0.785156 8.363281 1.425781 8.886719 2.035156 9.320312 C 2.714844 9.800781 3.453125 10.1875 4.175781 10.589844 C 5.511719 11.328125 6.972656 12.226562 7.488281 13.738281 C 8.035156 15.339844 7.519531 17.101562 6.769531 18.550781 C 5.933594 20.15625 4.792969 21.582031 3.910156 23.160156 C 3.175781 24.46875 2.660156 25.925781 2.636719 27.433594 C 2.605469 29.09375 3.269531 30.683594 4.542969 31.769531 C 5.285156 32.40625 6.171875 32.886719 7.117188 33.148438 C 8.5 33.53125 9.984375 33.425781 11.339844 33.003906 C 12.890625 32.527344 14.296875 31.664062 15.507812 30.605469 C 15.691406 30.445312 15.867188 30.28125 16.042969 30.113281 C 16.21875 30.222656 16.40625 30.242188 16.601562 30.164062 L 29.171875 25.308594 C 29.3125 25.253906 29.417969 25.164062 29.492188 25.035156 L 33.714844 17.507812 C 33.78125 17.386719 33.808594 17.257812 33.789062 17.121094 C 33.769531 16.984375 33.710938 16.867188 33.609375 16.769531 Z M 27.574219 10.789062 " fill-opacity="1" fill-rule="nonzero"/></g><g clip-path="url(#47ed12852e)"><path fill="#333333" d="M 36.824219 13.414062 L 30.960938 7.605469 C 30.839844 7.484375 30.691406 7.421875 30.519531 7.421875 C 30.347656 7.421875 30.199219 7.484375 30.078125 7.605469 L 28.195312 9.46875 C 28.074219 9.589844 28.015625 9.734375 28.015625 9.90625 C 28.015625 10.078125 28.074219 10.222656 28.195312 10.34375 L 34.058594 16.152344 C 34.179688 16.273438 34.328125 16.335938 34.5 16.335938 C 34.671875 16.335938 34.820312 16.273438 34.941406 16.152344 L 36.824219 14.289062 C 36.945312 14.167969 37.007812 14.023438 37.007812 13.851562 C 37.007812 13.679688 36.945312 13.535156 36.824219 13.414062 Z M 36.824219 13.414062 " fill-opacity="1" fill-rule="nonzero"/></g></svg>