<svg xmlns="http://www.w3.org/2000/svg" xmlns:xlink="http://www.w3.org/1999/xlink" width="50" zoomAndPan="magnify" viewBox="0 0 37.5 37.499999" height="50" preserveAspectRatio="xMidYMid meet" version="1.0"><defs><clipPath id="a983ab23ec"><path d="M 2.105469 1 L 34 1 L 34 37 L 2.105469 37 Z M 2.105469 1 " clip-rule="nonzero"/></clipPath></defs><g clip-path="url(#a983ab23ec)"><path fill="#231f20" d="M 29.832031 17.8125 C 26.675781 21.765625 20.933594 22.398438 17.007812 19.21875 C 13.078125 16.039062 12.453125 10.257812 15.609375 6.300781 C 18.761719 2.34375 24.507812 1.714844 28.433594 4.890625 C 32.363281 8.070312 32.988281 13.855469 29.832031 17.8125 Z M 29.371094 3.71875 C 24.800781 0.0195312 18.113281 0.75 14.441406 5.355469 C 11.113281 9.523438 11.398438 15.4375 14.875 19.265625 L 13.265625 21.277344 C 12.875 21.164062 12.539062 21.179688 12.355469 21.410156 L 3.238281 31.1875 C 2.101562 32.613281 2.328125 34.699219 3.742188 35.84375 C 5.160156 36.988281 7.226562 36.761719 8.363281 35.335938 L 15.882812 24.265625 C 16.066406 24.035156 16.011719 23.703125 15.8125 23.339844 L 17.421875 21.328125 C 21.882812 23.917969 27.675781 22.921875 31 18.753906 C 34.671875 14.148438 33.945312 7.417969 29.371094 3.71875 " fill-opacity="1" fill-rule="nonzero"/></g></svg>