<svg xmlns="http://www.w3.org/2000/svg" xmlns:xlink="http://www.w3.org/1999/xlink" width="50" zoomAndPan="magnify" viewBox="0 0 37.5 37.499999" height="50" preserveAspectRatio="xMidYMid meet" version="1.0"><defs><clipPath id="0caed255f5"><path d="M 0 0 L 37.007812 0 L 37.007812 37.007812 L 0 37.007812 Z M 0 0 " clip-rule="nonzero"/></clipPath></defs><g clip-path="url(#0caed255f5)"><path fill="#000000" d="M 18.609375 0.0078125 C 18.574219 0.0078125 18.539062 0 18.503906 0 C 18.472656 0 18.441406 0.0078125 18.410156 0.0078125 C 8.25 0.0546875 0 8.332031 0 18.503906 C 0 28.707031 8.300781 37.007812 18.503906 37.007812 C 28.707031 37.007812 37.007812 28.707031 37.007812 18.503906 C 37.007812 8.335938 28.765625 0.0625 18.609375 0.0078125 Z M 31.746094 8.042969 L 27.152344 8.042969 C 26.265625 5.726562 25.105469 3.824219 23.757812 2.457031 C 26.941406 3.503906 29.707031 5.46875 31.746094 8.042969 Z M 19.308594 1.691406 C 21.699219 2.128906 23.910156 4.472656 25.410156 8.042969 L 19.308594 8.042969 Z M 17.699219 1.691406 L 17.699219 8.042969 L 11.597656 8.042969 C 13.09375 4.472656 15.308594 2.128906 17.699219 1.691406 Z M 13.253906 2.457031 C 11.90625 3.824219 10.746094 5.726562 9.859375 8.042969 L 5.257812 8.042969 C 7.300781 5.46875 10.066406 3.5 13.253906 2.457031 Z M 5.257812 28.960938 L 9.855469 28.960938 C 10.742188 31.28125 11.90625 33.183594 13.253906 34.554688 C 10.066406 33.507812 7.300781 31.539062 5.257812 28.960938 Z M 17.699219 35.316406 C 15.308594 34.882812 13.09375 32.535156 11.597656 28.960938 L 17.699219 28.960938 Z M 19.308594 35.316406 L 19.308594 28.960938 L 25.40625 28.960938 C 23.910156 32.53125 21.699219 34.878906 19.308594 35.316406 Z M 23.75 34.554688 C 25.097656 33.183594 26.261719 31.285156 27.148438 28.964844 L 31.746094 28.964844 C 29.707031 31.539062 26.9375 33.507812 23.75 34.554688 Z M 32.867188 27.351562 L 27.691406 27.351562 C 27.90625 26.632812 28.105469 25.886719 28.273438 25.105469 C 28.367188 24.671875 28.089844 24.246094 27.65625 24.152344 C 27.21875 24.050781 26.792969 24.335938 26.699219 24.769531 C 26.507812 25.679688 26.269531 26.535156 26.003906 27.351562 L 19.308594 27.351562 L 19.308594 24.9375 C 19.308594 24.496094 18.949219 24.132812 18.503906 24.132812 C 18.058594 24.132812 17.699219 24.496094 17.699219 24.9375 L 17.699219 27.351562 L 11 27.351562 C 10.734375 26.535156 10.496094 25.679688 10.300781 24.769531 C 10.210938 24.335938 9.78125 24.050781 9.347656 24.152344 C 8.914062 24.242188 8.636719 24.671875 8.730469 25.105469 C 8.898438 25.886719 9.09375 26.636719 9.3125 27.351562 L 4.140625 27.351562 C 2.679688 24.992188 1.789062 22.25 1.652344 19.308594 L 5.632812 19.308594 C 6.074219 19.308594 6.4375 18.949219 6.4375 18.503906 C 6.4375 18.058594 6.074219 17.699219 5.632812 17.699219 L 1.648438 17.699219 C 1.789062 14.757812 2.675781 12.015625 4.136719 9.652344 L 9.3125 9.652344 C 9.097656 10.375 8.898438 11.117188 8.730469 11.898438 C 8.636719 12.332031 8.914062 12.757812 9.351562 12.851562 C 9.78125 12.949219 10.210938 12.671875 10.304688 12.234375 C 10.496094 11.328125 10.734375 10.46875 11.003906 9.652344 L 17.699219 9.652344 L 17.699219 12.066406 C 17.699219 12.511719 18.058594 12.871094 18.503906 12.871094 C 18.949219 12.871094 19.308594 12.511719 19.308594 12.066406 L 19.308594 9.652344 L 26.003906 9.652344 C 26.269531 10.46875 26.507812 11.328125 26.703125 12.234375 C 26.78125 12.613281 27.117188 12.871094 27.488281 12.871094 C 27.542969 12.871094 27.601562 12.867188 27.660156 12.851562 C 28.09375 12.761719 28.371094 12.332031 28.277344 11.898438 C 28.109375 11.117188 27.914062 10.375 27.695312 9.652344 L 32.867188 9.652344 C 34.328125 12.015625 35.21875 14.757812 35.355469 17.699219 L 31.375 17.699219 C 30.929688 17.699219 30.570312 18.058594 30.570312 18.503906 C 30.570312 18.949219 30.929688 19.308594 31.375 19.308594 L 35.355469 19.308594 C 35.21875 22.25 34.328125 24.992188 32.867188 27.351562 Z M 25.742188 14.480469 C 23.96875 14.480469 22.527344 15.925781 22.527344 17.699219 L 22.527344 19.308594 C 22.527344 21.082031 23.96875 22.527344 25.742188 22.527344 C 27.519531 22.527344 28.960938 21.082031 28.960938 19.308594 L 28.960938 17.699219 C 28.960938 15.925781 27.519531 14.480469 25.742188 14.480469 Z M 27.351562 19.308594 C 27.351562 20.195312 26.628906 20.917969 25.742188 20.917969 C 24.855469 20.917969 24.132812 20.195312 24.132812 19.308594 L 24.132812 17.699219 C 24.132812 16.8125 24.855469 16.089844 25.742188 16.089844 C 26.628906 16.089844 27.351562 16.8125 27.351562 17.699219 Z M 11.515625 17.730469 L 11.277344 17.6875 C 9.863281 17.460938 9.652344 17.09375 9.652344 16.894531 C 9.652344 16.574219 10.296875 16.089844 11.265625 16.089844 C 12.214844 16.089844 12.84375 16.542969 12.875 16.867188 C 12.917969 17.308594 13.308594 17.640625 13.753906 17.589844 C 14.195312 17.550781 14.519531 17.15625 14.476562 16.714844 C 14.355469 15.441406 12.972656 14.480469 11.261719 14.480469 C 9.457031 14.480469 8.042969 15.539062 8.042969 16.894531 C 8.042969 18.152344 9.042969 18.953125 11.015625 19.277344 L 11.144531 18.480469 L 11.253906 19.316406 C 12.589844 19.535156 12.871094 19.871094 12.871094 20.113281 C 12.871094 20.433594 12.226562 20.917969 11.257812 20.917969 C 10.308594 20.917969 9.679688 20.464844 9.648438 20.136719 C 9.605469 19.695312 9.214844 19.359375 8.773438 19.414062 C 8.328125 19.457031 8.007812 19.847656 8.046875 20.289062 C 8.171875 21.566406 9.550781 22.527344 11.261719 22.527344 C 13.066406 22.527344 14.480469 21.464844 14.480469 20.113281 C 14.480469 18.855469 13.484375 18.054688 11.515625 17.730469 Z M 20.917969 16.089844 C 21.359375 16.089844 21.722656 15.730469 21.722656 15.285156 C 21.722656 14.839844 21.359375 14.480469 20.917969 14.480469 L 16.894531 14.480469 C 16.449219 14.480469 16.089844 14.839844 16.089844 15.285156 L 16.089844 21.722656 C 16.089844 22.164062 16.449219 22.527344 16.894531 22.527344 L 20.917969 22.527344 C 21.359375 22.527344 21.722656 22.164062 21.722656 21.722656 C 21.722656 21.277344 21.359375 20.917969 20.917969 20.917969 L 17.699219 20.917969 L 17.699219 19.308594 L 20.113281 19.308594 C 20.554688 19.308594 20.917969 18.949219 20.917969 18.503906 C 20.917969 18.058594 20.554688 17.699219 20.113281 17.699219 L 17.699219 17.699219 L 17.699219 16.089844 Z M 20.917969 16.089844 " fill-opacity="1" fill-rule="nonzero"/></g></svg>