<svg xmlns="http://www.w3.org/2000/svg" xmlns:xlink="http://www.w3.org/1999/xlink" width="50" zoomAndPan="magnify" viewBox="0 0 37.5 37.499999" height="50" preserveAspectRatio="xMidYMid meet" version="1.0"><defs><clipPath id="3c25a5bf11"><path d="M 0 0 L 37.007812 0 L 37.007812 37 L 0 37 Z M 0 0 " clip-rule="nonzero"/></clipPath></defs><g clip-path="url(#3c25a5bf11)"><path fill="#000000" d="M 16.605469 30.136719 C 11.800781 33.324219 6.566406 32.199219 3.410156 29.335938 C 0.105469 26.335938 -0.921875 21.484375 0.878906 17.375 C 2.421875 13.851562 6.417969 10.433594 12.339844 11.261719 C 12.992188 6.539062 15.378906 3.023438 19.789062 1.066406 C 23.082031 -0.394531 26.4375 -0.328125 29.738281 1.128906 C 36.492188 4.109375 39.507812 12.917969 34.542969 19.789062 C 36.136719 21.753906 36.996094 24.003906 36.996094 26.554688 C 36.992188 33.996094 29.359375 39.070312 22.496094 36.175781 C 21.953125 35.949219 21.464844 35.898438 20.90625 36.015625 C 19.421875 36.332031 17.9375 36.640625 16.445312 36.902344 C 16.160156 36.953125 15.699219 36.882812 15.570312 36.695312 C 15.441406 36.503906 15.539062 36.050781 15.691406 35.804688 C 16.277344 34.839844 16.914062 33.902344 17.5625 32.976562 C 17.800781 32.640625 17.839844 32.386719 17.605469 32.019531 C 17.238281 31.433594 16.953125 30.800781 16.605469 30.136719 Z M 35.746094 12.339844 C 35.734375 6.21875 30.796875 1.285156 24.683594 1.285156 C 18.523438 1.289062 13.570312 6.234375 13.574219 12.378906 C 13.582031 18.515625 18.550781 23.445312 24.714844 23.429688 C 30.820312 23.417969 35.757812 18.453125 35.746094 12.339844 Z M 17.390625 35.46875 C 18.867188 35.175781 20.132812 34.902344 21.410156 34.691406 C 21.738281 34.636719 22.132812 34.6875 22.4375 34.824219 C 25.714844 36.277344 28.890625 36.113281 31.824219 34.050781 C 34.789062 31.964844 36.03125 28.996094 35.679688 25.402344 C 35.511719 23.679688 34.847656 22.132812 33.730469 20.789062 C 28.960938 25.183594 23.773438 25.851562 18.101562 22.851562 C 18.054688 22.910156 17.996094 22.957031 17.96875 23.019531 C 17.894531 23.199219 17.824219 23.378906 17.765625 23.5625 C 16.847656 26.441406 17.183594 29.171875 18.867188 31.6875 C 19.273438 32.296875 19.28125 32.730469 18.847656 33.292969 C 18.355469 33.933594 17.941406 34.636719 17.390625 35.46875 Z M 16.027344 24.675781 C 15.324219 25.269531 14.59375 25.976562 13.773438 26.554688 C 12.933594 27.152344 12.023438 27.65625 11.105469 28.128906 C 10.808594 28.28125 10.328125 28.324219 10.039062 28.191406 C 8.34375 27.417969 6.777344 26.429688 5.433594 25.125 C 4.417969 24.140625 3.617188 23.015625 3.25 21.621094 C 2.441406 18.5625 4.558594 15.769531 7.558594 16.109375 C 8.582031 16.222656 9.558594 16.789062 10.636719 17.175781 L 12.796875 16.058594 C 12.648438 15.019531 12.515625 13.929688 12.316406 12.851562 C 12.289062 12.691406 11.964844 12.496094 11.757812 12.46875 C 5.304688 11.585938 0.0507812 17.300781 1.453125 23.660156 C 2.855469 30.003906 10.515625 32.929688 15.792969 29.128906 C 15.980469 28.996094 16.199219 28.734375 16.195312 28.539062 C 16.171875 27.226562 16.089844 25.917969 16.027344 24.675781 Z M 7.132812 17.289062 C 5.902344 17.292969 4.863281 18.050781 4.492188 19.261719 C 4.023438 20.789062 4.539062 22.105469 5.457031 23.300781 C 6.703125 24.921875 8.390625 25.984375 10.183594 26.890625 C 10.355469 26.980469 10.675781 26.972656 10.832031 26.867188 C 12.109375 26.019531 13.4375 25.222656 14.605469 24.238281 C 15.296875 23.65625 15.757812 22.78125 16.257812 21.996094 C 16.363281 21.828125 16.25 21.425781 16.105469 21.21875 C 15.285156 20.042969 14.441406 18.882812 13.566406 17.742188 C 13.4375 17.570312 13.066406 17.390625 12.925781 17.457031 C 12.3125 17.757812 11.6875 18.085938 11.164062 18.519531 C 10.515625 19.058594 10.394531 19.113281 9.816406 18.496094 C 9.089844 17.71875 8.195312 17.316406 7.132812 17.289062 Z M 7.132812 17.289062 " fill-opacity="1" fill-rule="nonzero"/></g><path fill="#000000" d="M 21.902344 18.707031 C 21.160156 18.859375 20.527344 19.042969 19.886719 19.105469 C 19.242188 19.171875 18.585938 19.132812 17.9375 19.117188 C 16.78125 19.085938 16.046875 18.355469 16.035156 17.207031 C 16.019531 15.40625 16.023438 13.601562 16.039062 11.800781 C 16.046875 10.691406 16.773438 9.882812 17.875 9.90625 C 19.078125 9.929688 20.332031 9.570312 21.480469 10.261719 C 21.570312 10.3125 21.832031 10.226562 21.902344 10.125 C 22.195312 9.71875 22.574219 9.316406 22.675781 8.859375 C 22.984375 7.480469 23.222656 6.089844 23.394531 4.6875 C 23.476562 3.980469 23.535156 3.316406 24.269531 3.019531 C 25.019531 2.710938 25.75 2.847656 26.359375 3.382812 C 27.320312 4.230469 27.660156 5.371094 27.738281 6.605469 C 27.769531 7.050781 27.742188 7.503906 27.742188 8.039062 C 28.917969 8.039062 30.015625 8.039062 31.117188 8.039062 C 31.476562 8.042969 31.839844 8.023438 32.199219 8.0625 C 33.546875 8.207031 34.253906 9.464844 33.722656 10.707031 C 33.628906 10.929688 33.597656 11.257812 33.691406 11.46875 C 34.058594 12.289062 33.949219 12.996094 33.371094 13.675781 C 33.25 13.820312 33.191406 14.085938 33.226562 14.277344 C 33.355469 14.984375 33.25 15.597656 32.746094 16.152344 C 32.625 16.289062 32.570312 16.570312 32.609375 16.761719 C 32.871094 18.109375 32.097656 19.109375 30.722656 19.117188 C 28.316406 19.132812 25.90625 19.148438 23.503906 19.101562 C 22.910156 19.085938 22.320312 18.816406 21.902344 18.707031 Z M 24.75 4.148438 C 24.644531 5.09375 24.589844 6.054688 24.421875 6.992188 C 24.128906 8.621094 23.871094 10.28125 22.390625 11.382812 C 22.25 11.492188 22.21875 11.8125 22.21875 12.035156 C 22.203125 13.453125 22.207031 14.871094 22.210938 16.289062 C 22.214844 17.523438 22.609375 17.90625 23.871094 17.90625 C 25.988281 17.910156 28.105469 17.910156 30.222656 17.90625 C 30.710938 17.902344 31.371094 18.042969 31.402344 17.3125 C 31.433594 16.570312 30.773438 16.734375 30.292969 16.632812 C 30.039062 16.578125 29.839844 16.261719 29.613281 16.066406 C 29.832031 15.859375 30.015625 15.550781 30.273438 15.472656 C 30.625 15.371094 31.058594 15.519531 31.410156 15.40625 C 31.664062 15.328125 31.839844 15 32.050781 14.78125 C 31.839844 14.589844 31.65625 14.332031 31.40625 14.222656 C 31.179688 14.128906 30.886719 14.199219 30.621094 14.199219 C 30.152344 14.199219 29.617188 14.242188 29.628906 13.574219 C 29.640625 12.90625 30.199219 12.992188 30.652344 12.984375 C 31.035156 12.976562 31.421875 12.984375 31.804688 12.980469 C 32.25 12.972656 32.667969 12.882812 32.648438 12.328125 C 32.628906 11.828125 32.246094 11.734375 31.824219 11.742188 C 31.316406 11.746094 30.800781 11.804688 30.3125 11.714844 C 30.054688 11.667969 29.703125 11.386719 29.644531 11.152344 C 29.539062 10.710938 29.902344 10.53125 30.3125 10.519531 C 30.816406 10.507812 31.324219 10.515625 31.828125 10.511719 C 32.242188 10.503906 32.644531 10.421875 32.648438 9.914062 C 32.65625 9.363281 32.25 9.277344 31.796875 9.28125 C 30.640625 9.289062 29.488281 9.277344 28.332031 9.285156 C 26.460938 9.292969 26.539062 9.425781 26.476562 7.425781 C 26.449219 6.542969 26.199219 5.644531 25.929688 4.792969 C 25.789062 4.339844 25.371094 4.011719 24.75 4.148438 Z M 20.953125 14.570312 C 20.953125 13.683594 20.949219 12.792969 20.957031 11.902344 C 20.960938 11.402344 20.738281 11.140625 20.21875 11.140625 C 19.5 11.148438 18.777344 11.15625 18.054688 11.140625 C 17.492188 11.125 17.269531 11.410156 17.269531 11.933594 C 17.269531 13.664062 17.269531 15.394531 17.269531 17.128906 C 17.269531 17.667969 17.554688 17.910156 18.082031 17.90625 C 18.78125 17.902344 19.480469 17.910156 20.179688 17.90625 C 20.707031 17.902344 20.96875 17.640625 20.957031 17.097656 C 20.945312 16.253906 20.953125 15.414062 20.953125 14.570312 Z M 20.953125 14.570312 " fill-opacity="1" fill-rule="nonzero"/><path fill="#000000" d="M 26.515625 27.152344 C 24.976562 27.152344 23.433594 27.175781 21.894531 27.132812 C 21.589844 27.125 21.179688 26.925781 21.023438 26.683594 C 20.773438 26.289062 21.207031 25.898438 21.882812 25.894531 C 24.050781 25.890625 26.21875 25.894531 28.386719 25.894531 C 29.324219 25.894531 30.265625 25.898438 31.203125 25.894531 C 31.664062 25.890625 32.0625 26.023438 32.042969 26.550781 C 32.027344 27.03125 31.640625 27.152344 31.214844 27.152344 C 29.648438 27.152344 28.082031 27.152344 26.515625 27.152344 Z M 26.515625 27.152344 " fill-opacity="1" fill-rule="nonzero"/><path fill="#000000" d="M 26.589844 28.355469 C 28.082031 28.355469 29.574219 28.359375 31.070312 28.351562 C 31.527344 28.351562 32.023438 28.382812 32.039062 28.953125 C 32.0625 29.582031 31.546875 29.617188 31.0625 29.617188 C 28.027344 29.613281 24.992188 29.613281 21.957031 29.617188 C 21.496094 29.617188 21.003906 29.589844 20.984375 29.015625 C 20.964844 28.382812 21.480469 28.351562 21.964844 28.355469 C 23.503906 28.355469 25.046875 28.359375 26.589844 28.355469 Z M 26.589844 28.355469 " fill-opacity="1" fill-rule="nonzero"/><path fill="#000000" d="M 24.058594 32.078125 C 23.289062 32.074219 22.519531 32.078125 21.753906 32.074219 C 21.3125 32.074219 20.917969 31.890625 21.003906 31.433594 C 21.046875 31.191406 21.46875 30.855469 21.726562 30.847656 C 23.261719 30.792969 24.800781 30.820312 26.339844 30.820312 C 26.777344 30.820312 27.128906 30.996094 27.113281 31.472656 C 27.09375 31.941406 26.726562 32.082031 26.289062 32.078125 C 25.546875 32.070312 24.800781 32.078125 24.058594 32.078125 Z M 24.058594 32.078125 " fill-opacity="1" fill-rule="nonzero"/></svg>