<svg xmlns="http://www.w3.org/2000/svg" xmlns:xlink="http://www.w3.org/1999/xlink" width="50" zoomAndPan="magnify" viewBox="0 0 37.5 37.499999" height="50" preserveAspectRatio="xMidYMid meet" version="1.0"><defs><clipPath id="7e698879bc"><path d="M 29 13 L 37.007812 13 L 37.007812 22 L 29 22 Z M 29 13 " clip-rule="nonzero"/></clipPath><clipPath id="5da1d44cbc"><path d="M 22 28 L 35 28 L 35 36.277344 L 22 36.277344 Z M 22 28 " clip-rule="nonzero"/></clipPath><clipPath id="8c474664f9"><path d="M 15 0.75 L 25 0.75 L 25 10 L 15 10 Z M 15 0.75 " clip-rule="nonzero"/></clipPath><clipPath id="9c53a56f73"><path d="M 7 28 L 14 28 L 14 36.277344 L 7 36.277344 Z M 7 28 " clip-rule="nonzero"/></clipPath></defs><path fill="#000000" d="M 24.460938 4.3125 C 24.460938 4.519531 24.628906 4.683594 24.832031 4.683594 L 26.054688 4.683594 C 26.257812 4.683594 26.425781 4.519531 26.425781 4.3125 C 26.425781 4.109375 26.257812 3.941406 26.054688 3.941406 L 24.832031 3.941406 C 24.628906 3.941406 24.460938 4.109375 24.460938 4.3125 Z M 24.460938 4.3125 " fill-opacity="1" fill-rule="nonzero"/><path fill="#000000" d="M 24.710938 3.835938 C 24.789062 3.835938 24.867188 3.8125 24.933594 3.761719 L 25.90625 3.023438 C 26.070312 2.898438 26.101562 2.664062 25.980469 2.503906 C 25.855469 2.339844 25.621094 2.308594 25.460938 2.429688 L 24.484375 3.167969 C 24.324219 3.292969 24.289062 3.527344 24.414062 3.6875 C 24.488281 3.785156 24.597656 3.835938 24.710938 3.835938 Z M 24.710938 3.835938 " fill-opacity="1" fill-rule="nonzero"/><path fill="#000000" d="M 25.90625 5.605469 L 24.933594 4.867188 C 24.769531 4.742188 24.539062 4.773438 24.414062 4.9375 C 24.289062 5.101562 24.324219 5.332031 24.484375 5.457031 L 25.460938 6.195312 C 25.527344 6.246094 25.605469 6.269531 25.683594 6.269531 C 25.796875 6.269531 25.90625 6.21875 25.980469 6.125 C 26.101562 5.960938 26.070312 5.726562 25.90625 5.605469 Z M 25.90625 5.605469 " fill-opacity="1" fill-rule="nonzero"/><g clip-path="url(#7e698879bc)"><path fill="#000000" d="M 36.636719 14.007812 L 32.851562 14.007812 C 32.828125 13.949219 32.808594 13.890625 32.785156 13.832031 L 32.324219 14.007812 L 30.140625 14.007812 C 29.933594 14.007812 29.769531 14.175781 29.769531 14.378906 L 29.769531 19.371094 C 29.769531 19.578125 29.933594 19.742188 30.140625 19.742188 L 31.636719 19.742188 L 31.636719 21.441406 C 31.636719 21.59375 31.730469 21.730469 31.871094 21.785156 C 31.917969 21.800781 31.960938 21.808594 32.007812 21.808594 C 32.109375 21.808594 32.207031 21.769531 32.28125 21.691406 L 32.953125 20.957031 C 32.9375 21.113281 32.917969 21.269531 32.894531 21.421875 L 33.625 21.53125 C 33.660156 21.3125 33.6875 21.089844 33.710938 20.867188 L 33.09375 20.804688 L 33.523438 20.339844 L 33.753906 20.355469 C 33.761719 20.261719 33.765625 20.164062 33.769531 20.070312 L 34.070312 19.742188 L 36.636719 19.742188 C 36.839844 19.742188 37.007812 19.578125 37.007812 19.371094 L 37.007812 14.378906 C 37.007812 14.175781 36.839844 14.007812 36.636719 14.007812 Z M 36.265625 19 L 33.910156 19 C 33.804688 19 33.707031 19.042969 33.636719 19.121094 L 32.378906 20.488281 L 32.378906 19.371094 C 32.378906 19.167969 32.210938 19 32.007812 19 L 30.507812 19 L 30.507812 14.75 L 36.265625 14.75 Z M 36.265625 19 " fill-opacity="1" fill-rule="nonzero"/></g><path fill="#000000" d="M 31.269531 18.648438 C 31.460938 18.71875 31.675781 18.617188 31.746094 18.425781 L 31.898438 17.996094 L 32.792969 17.996094 L 32.949219 18.425781 C 33.003906 18.578125 33.144531 18.671875 33.296875 18.671875 C 33.335938 18.671875 33.378906 18.664062 33.421875 18.648438 C 33.613281 18.578125 33.714844 18.367188 33.644531 18.171875 L 33.621094 18.113281 C 33.792969 18.464844 34.148438 18.703125 34.558594 18.703125 C 34.730469 18.703125 34.886719 18.664062 35.03125 18.589844 C 35.09375 18.640625 35.171875 18.671875 35.257812 18.671875 C 35.464844 18.671875 35.628906 18.503906 35.628906 18.300781 L 35.628906 15.683594 C 35.628906 15.480469 35.464844 15.3125 35.257812 15.3125 C 35.054688 15.3125 34.886719 15.480469 34.886719 15.683594 L 34.886719 16.679688 C 34.785156 16.644531 34.675781 16.625 34.558594 16.625 C 33.984375 16.625 33.519531 17.089844 33.519531 17.664062 C 33.519531 17.75 33.53125 17.835938 33.550781 17.917969 L 32.695312 15.558594 C 32.640625 15.410156 32.503906 15.3125 32.347656 15.3125 C 32.191406 15.3125 32.050781 15.410156 31.996094 15.558594 L 31.046875 18.171875 C 30.976562 18.367188 31.078125 18.578125 31.269531 18.648438 Z M 34.558594 17.367188 C 34.722656 17.367188 34.855469 17.5 34.855469 17.664062 C 34.855469 17.828125 34.722656 17.960938 34.558594 17.960938 C 34.394531 17.960938 34.261719 17.828125 34.261719 17.664062 C 34.261719 17.5 34.394531 17.367188 34.558594 17.367188 Z M 32.347656 16.769531 L 32.523438 17.257812 L 32.167969 17.257812 Z M 32.347656 16.769531 " fill-opacity="1" fill-rule="nonzero"/><path fill="#000000" d="M 5.171875 17.589844 L 3.128906 16.40625 C 3.011719 16.339844 2.871094 16.339844 2.757812 16.40625 C 2.644531 16.472656 2.570312 16.597656 2.570312 16.730469 L 2.570312 19.089844 C 2.570312 19.222656 2.644531 19.34375 2.757812 19.410156 C 2.816406 19.445312 2.878906 19.460938 2.941406 19.460938 C 3.007812 19.460938 3.070312 19.445312 3.128906 19.410156 L 5.171875 18.230469 C 5.285156 18.164062 5.359375 18.042969 5.359375 17.910156 C 5.359375 17.777344 5.285156 17.65625 5.171875 17.589844 Z M 3.3125 18.449219 L 3.3125 17.371094 L 4.246094 17.910156 Z M 3.3125 18.449219 " fill-opacity="1" fill-rule="nonzero"/><path fill="#000000" d="M 5.683594 15.351562 L 6.328125 15.351562 L 6.328125 15.929688 L 5.683594 15.929688 Z M 5.683594 15.351562 " fill-opacity="1" fill-rule="nonzero"/><path fill="#000000" d="M 1.121094 15.351562 L 1.765625 15.351562 L 1.765625 15.929688 L 1.121094 15.929688 Z M 1.121094 15.351562 " fill-opacity="1" fill-rule="nonzero"/><path fill="#000000" d="M 2.261719 15.351562 L 2.90625 15.351562 L 2.90625 15.929688 L 2.261719 15.929688 Z M 2.261719 15.351562 " fill-opacity="1" fill-rule="nonzero"/><path fill="#000000" d="M 4.542969 15.351562 L 5.1875 15.351562 L 5.1875 15.929688 L 4.542969 15.929688 Z M 4.542969 15.351562 " fill-opacity="1" fill-rule="nonzero"/><path fill="#000000" d="M 3.402344 15.351562 L 4.046875 15.351562 L 4.046875 15.929688 L 3.402344 15.929688 Z M 3.402344 15.351562 " fill-opacity="1" fill-rule="nonzero"/><path fill="#000000" d="M 3.402344 19.929688 L 4.046875 19.929688 L 4.046875 20.503906 L 3.402344 20.503906 Z M 3.402344 19.929688 " fill-opacity="1" fill-rule="nonzero"/><path fill="#000000" d="M 5.683594 19.929688 L 6.328125 19.929688 L 6.328125 20.503906 L 5.683594 20.503906 Z M 5.683594 19.929688 " fill-opacity="1" fill-rule="nonzero"/><path fill="#000000" d="M 2.261719 19.929688 L 2.90625 19.929688 L 2.90625 20.503906 L 2.261719 20.503906 Z M 2.261719 19.929688 " fill-opacity="1" fill-rule="nonzero"/><path fill="#000000" d="M 4.542969 19.929688 L 5.1875 19.929688 L 5.1875 20.503906 L 4.542969 20.503906 Z M 4.542969 19.929688 " fill-opacity="1" fill-rule="nonzero"/><path fill="#000000" d="M 1.121094 19.929688 L 1.765625 19.929688 L 1.765625 20.503906 L 1.121094 20.503906 Z M 1.121094 19.929688 " fill-opacity="1" fill-rule="nonzero"/><path fill="#000000" d="M 8.476562 31.535156 C 8.476562 31.714844 8.621094 31.863281 8.800781 31.863281 L 11.933594 31.863281 C 12.113281 31.863281 12.261719 31.714844 12.261719 31.535156 C 12.261719 31.355469 12.113281 31.207031 11.933594 31.207031 L 8.800781 31.207031 C 8.621094 31.207031 8.476562 31.355469 8.476562 31.535156 Z M 8.476562 31.535156 " fill-opacity="1" fill-rule="nonzero"/><path fill="#000000" d="M 11.933594 32.320312 L 8.800781 32.320312 C 8.621094 32.320312 8.476562 32.464844 8.476562 32.644531 C 8.476562 32.828125 8.621094 32.972656 8.800781 32.972656 L 11.933594 32.972656 C 12.113281 32.972656 12.261719 32.828125 12.261719 32.644531 C 12.261719 32.464844 12.113281 32.320312 11.933594 32.320312 Z M 11.933594 32.320312 " fill-opacity="1" fill-rule="nonzero"/><path fill="#000000" d="M 11.933594 33.429688 L 8.800781 33.429688 C 8.621094 33.429688 8.476562 33.574219 8.476562 33.757812 C 8.476562 33.9375 8.621094 34.082031 8.800781 34.082031 L 11.933594 34.082031 C 12.113281 34.082031 12.261719 33.9375 12.261719 33.757812 C 12.261719 33.574219 12.113281 33.429688 11.933594 33.429688 Z M 11.933594 33.429688 " fill-opacity="1" fill-rule="nonzero"/><path fill="#000000" d="M 11.933594 34.539062 L 8.800781 34.539062 C 8.621094 34.539062 8.476562 34.6875 8.476562 34.867188 C 8.476562 35.046875 8.621094 35.195312 8.800781 35.195312 L 11.933594 35.195312 C 12.113281 35.195312 12.261719 35.046875 12.261719 34.867188 C 12.261719 34.6875 12.113281 34.539062 11.933594 34.539062 Z M 11.933594 34.539062 " fill-opacity="1" fill-rule="nonzero"/><g clip-path="url(#5da1d44cbc)"><path fill="#000000" d="M 33.808594 30.375 L 32.59375 29.855469 L 32.96875 28.585938 C 33.007812 28.464844 32.96875 28.328125 32.871094 28.246094 C 32.773438 28.160156 32.632812 28.140625 32.519531 28.195312 L 30.582031 29.105469 C 30.496094 29.144531 30.433594 29.21875 30.40625 29.308594 L 29.988281 30.710938 L 29.441406 30.96875 C 29.316406 30.753906 29.171875 30.554688 29.003906 30.371094 C 29.046875 30.328125 29.089844 30.285156 29.136719 30.242188 L 28.621094 29.710938 C 28.5625 29.765625 28.503906 29.820312 28.445312 29.875 C 28.234375 29.722656 28.007812 29.597656 27.769531 29.496094 C 27.332031 29.3125 26.871094 29.21875 26.394531 29.21875 C 25.917969 29.21875 25.457031 29.3125 25.023438 29.496094 C 24.601562 29.671875 24.226562 29.925781 23.902344 30.25 C 23.578125 30.574219 23.324219 30.953125 23.144531 31.375 C 22.960938 31.808594 22.867188 32.269531 22.867188 32.746094 C 22.867188 32.867188 22.875 32.988281 22.886719 33.109375 C 22.8125 33.128906 22.738281 33.152344 22.664062 33.175781 L 22.875 33.886719 C 22.929688 33.871094 22.984375 33.851562 23.039062 33.835938 C 23.070312 33.933594 23.105469 34.027344 23.144531 34.121094 C 23.324219 34.542969 23.578125 34.917969 23.902344 35.242188 C 24.226562 35.566406 24.601562 35.820312 25.023438 36 C 25.457031 36.183594 25.917969 36.277344 26.394531 36.277344 C 26.871094 36.277344 27.332031 36.183594 27.769531 36 C 28.1875 35.820312 28.566406 35.566406 28.890625 35.242188 C 29.214844 34.917969 29.46875 34.542969 29.644531 34.121094 C 29.828125 33.6875 29.921875 33.222656 29.921875 32.746094 C 29.921875 32.339844 29.855469 31.941406 29.71875 31.5625 L 30.265625 31.304688 L 31.609375 31.886719 C 31.652344 31.902344 31.695312 31.914062 31.742188 31.914062 C 31.789062 31.914062 31.835938 31.902344 31.878906 31.882812 L 33.816406 30.972656 C 33.933594 30.917969 34.007812 30.800781 34.003906 30.671875 C 34.003906 30.542969 33.925781 30.425781 33.808594 30.375 Z M 28.425781 34.78125 C 27.882812 35.324219 27.164062 35.621094 26.394531 35.621094 C 25.628906 35.621094 24.90625 35.324219 24.363281 34.78125 C 23.820312 34.238281 23.523438 33.515625 23.523438 32.746094 C 23.523438 31.980469 23.820312 31.257812 24.363281 30.714844 C 24.90625 30.171875 25.628906 29.871094 26.394531 29.871094 C 27.164062 29.871094 27.882812 30.171875 28.425781 30.714844 C 28.589844 30.878906 28.730469 31.054688 28.847656 31.246094 L 28.375 31.46875 C 28.285156 31.328125 28.179688 31.199219 28.0625 31.082031 C 27.617188 30.636719 27.023438 30.390625 26.394531 30.390625 C 25.765625 30.390625 25.175781 30.636719 24.730469 31.082031 C 24.285156 31.527344 24.039062 32.117188 24.039062 32.746094 C 24.039062 33.378906 24.285156 33.96875 24.730469 34.414062 C 25.175781 34.859375 25.765625 35.105469 26.394531 35.105469 C 27.023438 35.105469 27.617188 34.859375 28.0625 34.414062 C 28.507812 33.96875 28.75 33.378906 28.75 32.746094 C 28.75 32.511719 28.71875 32.28125 28.652344 32.0625 L 29.125 31.839844 C 29.21875 32.128906 29.269531 32.433594 29.269531 32.746094 C 29.269531 33.515625 28.96875 34.238281 28.425781 34.78125 Z M 26.125 32.882812 C 26.179688 33.003906 26.296875 33.074219 26.421875 33.074219 C 26.46875 33.074219 26.515625 33.0625 26.558594 33.042969 L 26.910156 32.878906 C 26.851562 33.109375 26.644531 33.277344 26.394531 33.277344 C 26.101562 33.277344 25.867188 33.039062 25.867188 32.746094 C 25.867188 32.453125 26.101562 32.21875 26.394531 32.21875 C 26.484375 32.21875 26.570312 32.238281 26.644531 32.277344 L 26.28125 32.449219 C 26.117188 32.527344 26.046875 32.71875 26.125 32.882812 Z M 26.394531 31.5625 C 25.742188 31.5625 25.210938 32.09375 25.210938 32.746094 C 25.210938 33.402344 25.742188 33.933594 26.394531 33.933594 C 27.046875 33.933594 27.582031 33.402344 27.582031 32.746094 C 27.582031 32.6875 27.574219 32.628906 27.566406 32.570312 L 28.050781 32.34375 C 28.082031 32.472656 28.097656 32.609375 28.097656 32.746094 C 28.097656 33.6875 27.332031 34.449219 26.394531 34.449219 C 25.457031 34.449219 24.695312 33.6875 24.695312 32.746094 C 24.695312 31.808594 25.457031 31.042969 26.394531 31.042969 C 26.960938 31.042969 27.464844 31.324219 27.773438 31.75 L 27.292969 31.976562 C 27.074219 31.722656 26.753906 31.5625 26.394531 31.5625 Z M 30.992188 29.636719 L 32.136719 29.097656 L 31.925781 29.804688 L 30.78125 30.339844 Z M 31.734375 31.226562 L 31.058594 30.933594 L 32.203125 30.398438 L 32.878906 30.691406 Z M 31.734375 31.226562 " fill-opacity="1" fill-rule="nonzero"/></g><path fill="#000000" d="M 22.988281 27.777344 C 22.988281 27.5625 22.8125 27.386719 22.597656 27.386719 L 20.859375 27.386719 L 20.859375 25.777344 L 26.988281 25.777344 C 27.207031 25.777344 27.378906 25.601562 27.378906 25.386719 L 27.378906 13.054688 C 27.378906 12.839844 27.207031 12.664062 26.988281 12.664062 L 10.4375 12.664062 C 10.222656 12.664062 10.046875 12.839844 10.046875 13.054688 L 10.046875 25.386719 C 10.046875 25.601562 10.222656 25.777344 10.4375 25.777344 L 16.570312 25.777344 L 16.570312 27.386719 L 14.832031 27.386719 C 14.617188 27.386719 14.441406 27.5625 14.441406 27.777344 C 14.441406 27.992188 14.617188 28.167969 14.832031 28.167969 L 22.597656 28.167969 C 22.8125 28.167969 22.988281 27.992188 22.988281 27.777344 Z M 10.828125 13.449219 L 26.597656 13.449219 L 26.597656 22.707031 L 10.828125 22.707031 Z M 20.078125 27.386719 L 17.351562 27.386719 L 17.351562 25.777344 L 20.078125 25.777344 Z M 20.46875 24.980469 L 16.960938 24.980469 C 16.921875 24.980469 16.886719 24.984375 16.851562 24.996094 L 10.828125 24.996094 L 10.828125 23.488281 L 26.597656 23.488281 L 26.597656 24.996094 L 20.578125 24.996094 C 20.542969 24.984375 20.507812 24.980469 20.46875 24.980469 Z M 20.46875 24.980469 " fill-opacity="1" fill-rule="nonzero"/><path fill="#000000" d="M 6.53125 11.292969 L 5.914062 10.882812 C 5.796875 11.0625 5.683594 11.242188 5.574219 11.425781 L 6.207031 11.808594 C 6.3125 11.636719 6.421875 11.464844 6.53125 11.292969 Z M 6.53125 11.292969 " fill-opacity="1" fill-rule="nonzero"/><path fill="#000000" d="M 8.601562 8.820312 L 8.089844 8.285156 C 7.9375 8.433594 7.785156 8.585938 7.636719 8.738281 L 8.171875 9.25 C 8.3125 9.105469 8.457031 8.960938 8.601562 8.820312 Z M 8.601562 8.820312 " fill-opacity="1" fill-rule="nonzero"/><path fill="#000000" d="M 9.410156 8.105469 L 8.9375 7.535156 C 8.773438 7.667969 8.609375 7.808594 8.453125 7.953125 L 8.945312 8.503906 C 9.097656 8.367188 9.253906 8.234375 9.410156 8.105469 Z M 9.410156 8.105469 " fill-opacity="1" fill-rule="nonzero"/><path fill="#000000" d="M 5.480469 13.171875 L 4.808594 12.859375 C 4.71875 13.050781 4.628906 13.25 4.550781 13.445312 L 5.234375 13.730469 C 5.3125 13.542969 5.394531 13.355469 5.480469 13.171875 Z M 5.480469 13.171875 " fill-opacity="1" fill-rule="nonzero"/><path fill="#000000" d="M 7.851562 9.59375 L 7.300781 9.097656 C 7.160156 9.253906 7.019531 9.417969 6.882812 9.582031 L 7.453125 10.054688 C 7.582031 9.898438 7.71875 9.742188 7.851562 9.59375 Z M 7.851562 9.59375 " fill-opacity="1" fill-rule="nonzero"/><path fill="#000000" d="M 5.972656 12.214844 L 5.324219 11.851562 C 5.222656 12.035156 5.121094 12.226562 5.023438 12.417969 L 5.683594 12.75 C 5.777344 12.570312 5.871094 12.390625 5.972656 12.214844 Z M 5.972656 12.214844 " fill-opacity="1" fill-rule="nonzero"/><path fill="#000000" d="M 13.085938 5.902344 L 12.804688 5.214844 C 12.609375 5.296875 12.410156 5.382812 12.21875 5.472656 L 12.53125 6.144531 C 12.714844 6.058594 12.898438 5.976562 13.085938 5.902344 Z M 13.085938 5.902344 " fill-opacity="1" fill-rule="nonzero"/><path fill="#000000" d="M 15.128906 5.234375 L 14.953125 4.515625 C 14.746094 4.566406 14.539062 4.621094 14.335938 4.679688 L 14.542969 5.390625 C 14.734375 5.335938 14.933594 5.28125 15.128906 5.234375 Z M 15.128906 5.234375 " fill-opacity="1" fill-rule="nonzero"/><path fill="#000000" d="M 12.109375 6.347656 L 11.777344 5.683594 C 11.585938 5.78125 11.394531 5.882812 11.210938 5.984375 L 11.570312 6.632812 C 11.746094 6.535156 11.929688 6.4375 12.109375 6.347656 Z M 12.109375 6.347656 " fill-opacity="1" fill-rule="nonzero"/><path fill="#000000" d="M 7.160156 10.421875 L 6.574219 9.964844 C 6.445312 10.132812 6.316406 10.304688 6.195312 10.480469 L 6.796875 10.910156 C 6.914062 10.742188 7.039062 10.578125 7.160156 10.421875 Z M 7.160156 10.421875 " fill-opacity="1" fill-rule="nonzero"/><path fill="#000000" d="M 14.09375 5.53125 L 13.863281 4.824219 C 13.664062 4.890625 13.460938 4.960938 13.261719 5.035156 L 13.523438 5.730469 C 13.710938 5.660156 13.902344 5.59375 14.09375 5.53125 Z M 14.09375 5.53125 " fill-opacity="1" fill-rule="nonzero"/><path fill="#000000" d="M 10.265625 7.453125 L 9.835938 6.847656 C 9.664062 6.96875 9.492188 7.097656 9.324219 7.226562 L 9.773438 7.816406 C 9.933594 7.691406 10.097656 7.570312 10.265625 7.453125 Z M 10.265625 7.453125 " fill-opacity="1" fill-rule="nonzero"/><path fill="#000000" d="M 11.164062 6.867188 L 10.785156 6.230469 C 10.601562 6.339844 10.421875 6.453125 10.242188 6.570312 L 10.652344 7.191406 C 10.820312 7.078125 10.992188 6.96875 11.164062 6.867188 Z M 11.164062 6.867188 " fill-opacity="1" fill-rule="nonzero"/><g clip-path="url(#8c474664f9)"><path fill="#000000" d="M 15.675781 5.113281 C 15.921875 5.65625 16.449219 6.042969 17.070312 6.09375 L 17.070312 8.296875 C 17.070312 8.792969 17.476562 9.199219 17.972656 9.199219 L 18.0625 9.199219 C 18.558594 9.199219 18.964844 8.792969 18.964844 8.296875 L 18.964844 6.097656 L 19.636719 6.097656 C 19.648438 6.101562 19.664062 6.105469 19.675781 6.109375 C 20.746094 6.320312 21.742188 6.820312 22.550781 7.550781 L 22.980469 7.945312 C 23.050781 8.007812 23.140625 8.039062 23.230469 8.039062 C 23.28125 8.039062 23.332031 8.027344 23.378906 8.007812 C 23.515625 7.949219 23.601562 7.816406 23.601562 7.667969 L 23.601562 5.480469 C 24.039062 5.324219 24.355469 4.90625 24.355469 4.414062 C 24.355469 3.921875 24.039062 3.503906 23.601562 3.351562 L 23.601562 1.148438 C 23.601562 1.003906 23.515625 0.871094 23.378906 0.808594 C 23.246094 0.75 23.089844 0.777344 22.980469 0.875 L 22.550781 1.265625 C 21.742188 2 20.746094 2.5 19.675781 2.710938 C 19.648438 2.714844 19.625 2.722656 19.597656 2.734375 L 17.207031 2.734375 C 16.289062 2.734375 15.539062 3.472656 15.523438 4.386719 C 15.496094 4.390625 15.464844 4.398438 15.4375 4.402344 L 15.589844 5.128906 C 15.617188 5.121094 15.644531 5.117188 15.675781 5.113281 Z M 23.597656 4.359375 C 23.601562 4.347656 23.601562 4.332031 23.601562 4.316406 L 23.601562 4.011719 C 23.710938 4.113281 23.777344 4.253906 23.777344 4.414062 C 23.777344 4.574219 23.710938 4.71875 23.601562 4.816406 L 23.601562 4.503906 C 23.601562 4.488281 23.601562 4.472656 23.597656 4.457031 Z M 20.121094 4.503906 L 20.121094 3.371094 C 21.128906 3.125 22.066406 2.648438 22.859375 1.980469 L 22.859375 4.269531 C 22.859375 4.285156 22.859375 4.300781 22.859375 4.316406 L 22.859375 4.503906 C 22.859375 4.519531 22.859375 4.53125 22.859375 4.546875 L 22.859375 6.839844 C 22.066406 6.171875 21.128906 5.695312 20.121094 5.449219 Z M 18.222656 8.296875 C 18.222656 8.386719 18.148438 8.457031 18.0625 8.457031 L 17.972656 8.457031 C 17.886719 8.457031 17.8125 8.386719 17.8125 8.296875 L 17.8125 6.101562 L 18.222656 6.101562 Z M 17.207031 3.476562 L 19.378906 3.476562 L 19.378906 4.316406 C 19.378906 4.328125 19.378906 4.339844 19.378906 4.351562 L 19.378906 4.46875 C 19.378906 4.480469 19.378906 4.492188 19.378906 4.503906 L 19.378906 5.355469 L 17.207031 5.355469 C 16.6875 5.355469 16.265625 4.933594 16.265625 4.417969 C 16.265625 3.898438 16.6875 3.476562 17.207031 3.476562 Z M 17.207031 3.476562 " fill-opacity="1" fill-rule="nonzero"/></g><path fill="#000000" d="M 4.445312 22.320312 L 3.722656 22.472656 C 3.765625 22.683594 3.816406 22.898438 3.871094 23.105469 L 4.589844 22.917969 C 4.535156 22.722656 4.488281 22.519531 4.445312 22.320312 Z M 4.445312 22.320312 " fill-opacity="1" fill-rule="nonzero"/><path fill="#000000" d="M 5.484375 25.414062 L 4.8125 25.726562 C 4.90625 25.921875 5 26.117188 5.101562 26.308594 L 5.757812 25.964844 C 5.664062 25.785156 5.570312 25.597656 5.484375 25.414062 Z M 5.484375 25.414062 " fill-opacity="1" fill-rule="nonzero"/><path fill="#000000" d="M 4.714844 23.375 L 4.003906 23.585938 C 4.0625 23.792969 4.128906 24 4.199219 24.203125 L 4.898438 23.964844 C 4.835938 23.769531 4.773438 23.574219 4.714844 23.375 Z M 4.714844 23.375 " fill-opacity="1" fill-rule="nonzero"/><path fill="#000000" d="M 5.0625 24.410156 L 4.367188 24.671875 C 4.445312 24.875 4.523438 25.074219 4.609375 25.273438 L 5.292969 24.980469 C 5.210938 24.792969 5.132812 24.601562 5.0625 24.410156 Z M 5.0625 24.410156 " fill-opacity="1" fill-rule="nonzero"/><path fill="#000000" d="M 6.554688 27.3125 L 5.9375 27.722656 C 6.058594 27.902344 6.183594 28.082031 6.308594 28.253906 L 6.90625 27.816406 C 6.785156 27.652344 6.667969 27.480469 6.554688 27.3125 Z M 6.554688 27.3125 " fill-opacity="1" fill-rule="nonzero"/><path fill="#000000" d="M 7.191406 28.195312 L 6.609375 28.652344 C 6.742188 28.820312 6.878906 28.992188 7.019531 29.152344 L 7.582031 28.671875 C 7.449219 28.515625 7.320312 28.355469 7.191406 28.195312 Z M 7.191406 28.195312 " fill-opacity="1" fill-rule="nonzero"/><path fill="#000000" d="M 5.984375 26.382812 L 5.339844 26.746094 C 5.445312 26.933594 5.554688 27.121094 5.667969 27.304688 L 6.296875 26.914062 C 6.191406 26.738281 6.082031 26.5625 5.984375 26.382812 Z M 5.984375 26.382812 " fill-opacity="1" fill-rule="nonzero"/><path fill="#000000" d="M 4.328125 21.703125 L 6.355469 21.703125 C 7.03125 21.703125 7.582031 21.152344 7.582031 20.476562 L 7.582031 15.34375 C 7.582031 14.667969 7.03125 14.117188 6.355469 14.117188 L 4.925781 14.117188 L 4.367188 13.902344 C 4.339844 13.972656 4.316406 14.042969 4.289062 14.117188 L 1.226562 14.117188 C 0.550781 14.117188 0 14.667969 0 15.34375 L 0 20.476562 C 0 21.152344 0.550781 21.703125 1.226562 21.703125 L 3.578125 21.703125 C 3.59375 21.796875 3.609375 21.890625 3.625 21.984375 L 4.355469 21.851562 C 4.347656 21.804688 4.335938 21.753906 4.328125 21.703125 Z M 1.226562 20.960938 C 0.960938 20.960938 0.742188 20.746094 0.742188 20.476562 L 0.742188 15.34375 C 0.742188 15.074219 0.960938 14.855469 1.226562 14.855469 L 6.355469 14.855469 C 6.625 14.855469 6.84375 15.074219 6.84375 15.34375 L 6.84375 15.351562 L 6.824219 15.351562 L 6.824219 15.929688 L 6.84375 15.929688 L 6.84375 19.929688 L 6.824219 19.929688 L 6.824219 20.503906 L 6.839844 20.503906 C 6.828125 20.761719 6.613281 20.960938 6.355469 20.960938 Z M 1.226562 20.960938 " fill-opacity="1" fill-rule="nonzero"/><path fill="#000000" d="M 18.589844 33.757812 C 18.5 33.757812 18.410156 33.757812 18.320312 33.753906 L 18.308594 34.496094 C 18.402344 34.5 18.496094 34.5 18.589844 34.5 C 18.714844 34.5 18.839844 34.496094 18.960938 34.496094 L 18.945312 33.753906 C 18.828125 33.753906 18.707031 33.757812 18.589844 33.757812 Z M 18.589844 33.757812 " fill-opacity="1" fill-rule="nonzero"/><path fill="#000000" d="M 21.597656 33.445312 L 21.753906 34.167969 C 21.964844 34.125 22.179688 34.074219 22.386719 34.019531 L 22.203125 33.300781 C 22.003906 33.351562 21.800781 33.402344 21.597656 33.445312 Z M 21.597656 33.445312 " fill-opacity="1" fill-rule="nonzero"/><path fill="#000000" d="M 20.515625 33.628906 L 20.613281 34.363281 C 20.828125 34.335938 21.046875 34.304688 21.257812 34.265625 L 21.128906 33.535156 C 20.925781 33.570312 20.71875 33.601562 20.515625 33.628906 Z M 20.515625 33.628906 " fill-opacity="1" fill-rule="nonzero"/><path fill="#000000" d="M 16.007812 34.28125 C 16.222656 34.316406 16.441406 34.347656 16.65625 34.375 L 16.75 33.640625 C 16.542969 33.613281 16.335938 33.585938 16.132812 33.550781 Z M 16.007812 34.28125 " fill-opacity="1" fill-rule="nonzero"/><path fill="#000000" d="M 17.15625 34.433594 C 17.371094 34.453125 17.589844 34.46875 17.804688 34.480469 L 17.84375 33.738281 C 17.636719 33.726562 17.429688 33.710938 17.222656 33.695312 Z M 17.15625 34.433594 " fill-opacity="1" fill-rule="nonzero"/><path fill="#000000" d="M 14.878906 34.042969 C 15.089844 34.09375 15.300781 34.144531 15.515625 34.1875 L 15.664062 33.460938 C 15.460938 33.417969 15.257812 33.371094 15.058594 33.324219 Z M 14.878906 34.042969 " fill-opacity="1" fill-rule="nonzero"/><path fill="#000000" d="M 19.421875 33.734375 L 19.464844 34.472656 C 19.679688 34.460938 19.898438 34.445312 20.113281 34.421875 L 20.039062 33.683594 C 19.835938 33.707031 19.628906 33.722656 19.421875 33.734375 Z M 19.421875 33.734375 " fill-opacity="1" fill-rule="nonzero"/><path fill="#000000" d="M 13.769531 33.71875 C 13.972656 33.785156 14.183594 33.851562 14.390625 33.910156 L 14.597656 33.199219 C 14.398438 33.140625 14.199219 33.078125 14.003906 33.015625 Z M 13.769531 33.71875 " fill-opacity="1" fill-rule="nonzero"/><g clip-path="url(#9c53a56f73)"><path fill="#000000" d="M 13.378906 30.722656 C 13.378906 30.636719 13.34375 30.554688 13.28125 30.492188 L 11.773438 28.980469 C 11.769531 28.976562 11.761719 28.972656 11.757812 28.96875 C 11.757812 28.964844 11.753906 28.964844 11.753906 28.964844 C 11.75 28.960938 11.742188 28.957031 11.738281 28.953125 C 11.738281 28.953125 11.738281 28.949219 11.734375 28.949219 C 11.730469 28.945312 11.726562 28.941406 11.71875 28.9375 C 11.71875 28.9375 11.714844 28.9375 11.714844 28.933594 C 11.707031 28.933594 11.703125 28.929688 11.699219 28.925781 C 11.695312 28.925781 11.695312 28.925781 11.695312 28.925781 C 11.6875 28.921875 11.683594 28.917969 11.675781 28.914062 C 11.675781 28.914062 11.671875 28.914062 11.671875 28.914062 C 11.664062 28.910156 11.660156 28.90625 11.652344 28.90625 C 11.644531 28.902344 11.636719 28.902344 11.632812 28.898438 C 11.628906 28.898438 11.628906 28.898438 11.625 28.898438 C 11.621094 28.894531 11.613281 28.894531 11.609375 28.894531 C 11.605469 28.894531 11.605469 28.894531 11.605469 28.890625 C 11.597656 28.890625 11.59375 28.890625 11.585938 28.890625 C 11.582031 28.890625 11.582031 28.886719 11.578125 28.886719 C 11.574219 28.886719 11.566406 28.886719 11.5625 28.886719 C 11.558594 28.886719 11.558594 28.886719 11.558594 28.886719 C 11.550781 28.886719 11.546875 28.886719 11.542969 28.886719 L 7.683594 28.886719 C 7.503906 28.886719 7.359375 29.03125 7.359375 29.214844 L 7.359375 29.519531 L 7.347656 29.527344 C 7.351562 29.53125 7.355469 29.535156 7.359375 29.539062 L 7.359375 35.945312 C 7.359375 36.128906 7.503906 36.273438 7.683594 36.273438 L 13.050781 36.273438 C 13.230469 36.273438 13.378906 36.128906 13.378906 35.945312 L 13.378906 33.328125 L 13.550781 32.855469 C 13.496094 32.832031 13.4375 32.8125 13.378906 32.789062 Z M 11.867188 30.007812 L 12.1875 30.332031 L 11.867188 30.332031 Z M 12.722656 35.621094 L 8.011719 35.621094 L 8.011719 29.539062 L 11.214844 29.539062 L 11.214844 30.65625 C 11.214844 30.839844 11.359375 30.984375 11.542969 30.984375 L 12.722656 30.984375 Z M 12.722656 35.621094 " fill-opacity="1" fill-rule="nonzero"/></g><path fill="#000000" d="M 32.015625 24.675781 L 32.703125 24.953125 C 32.785156 24.746094 32.863281 24.535156 32.9375 24.324219 L 32.238281 24.078125 C 32.167969 24.277344 32.09375 24.480469 32.015625 24.675781 Z M 32.015625 24.675781 " fill-opacity="1" fill-rule="nonzero"/><path fill="#000000" d="M 31.015625 26.691406 L 31.652344 27.070312 C 31.765625 26.878906 31.878906 26.683594 31.984375 26.488281 L 31.328125 26.136719 C 31.230469 26.324219 31.125 26.507812 31.015625 26.691406 Z M 31.015625 26.691406 " fill-opacity="1" fill-rule="nonzero"/><path fill="#000000" d="M 31.554688 25.703125 L 32.21875 26.03125 C 32.316406 25.832031 32.414062 25.628906 32.503906 25.425781 L 31.824219 25.125 C 31.738281 25.320312 31.648438 25.511719 31.554688 25.703125 Z M 31.554688 25.703125 " fill-opacity="1" fill-rule="nonzero"/><path fill="#000000" d="M 32.390625 23.617188 L 33.097656 23.835938 C 33.164062 23.625 33.226562 23.410156 33.285156 23.195312 L 32.566406 23.003906 C 32.515625 23.207031 32.453125 23.414062 32.390625 23.617188 Z M 32.390625 23.617188 " fill-opacity="1" fill-rule="nonzero"/><path fill="#000000" d="M 33.542969 22.039062 L 32.8125 21.90625 C 32.777344 22.113281 32.734375 22.324219 32.683594 22.527344 L 33.40625 22.695312 C 33.457031 22.476562 33.503906 22.257812 33.542969 22.039062 Z M 33.542969 22.039062 " fill-opacity="1" fill-rule="nonzero"/><path fill="#000000" d="M 30.402344 27.632812 L 31.007812 28.0625 C 31.136719 27.882812 31.261719 27.695312 31.382812 27.507812 L 30.757812 27.105469 C 30.644531 27.285156 30.523438 27.460938 30.402344 27.632812 Z M 30.402344 27.632812 " fill-opacity="1" fill-rule="nonzero"/><path fill="#000000" d="M 29.71875 28.527344 L 30.289062 29 C 30.429688 28.828125 30.570312 28.652344 30.703125 28.476562 L 30.113281 28.027344 C 29.984375 28.195312 29.851562 28.363281 29.71875 28.527344 Z M 29.71875 28.527344 " fill-opacity="1" fill-rule="nonzero"/><path fill="#000000" d="M 28.964844 29.363281 L 29.5 29.882812 C 29.652344 29.722656 29.804688 29.558594 29.953125 29.390625 L 29.398438 28.898438 C 29.257812 29.054688 29.113281 29.214844 28.964844 29.363281 Z M 28.964844 29.363281 " fill-opacity="1" fill-rule="nonzero"/><path fill="#000000" d="M 26.414062 6.242188 C 26.324219 6.1875 26.230469 6.132812 26.136719 6.082031 L 25.769531 6.722656 C 25.855469 6.773438 25.945312 6.828125 26.03125 6.878906 Z M 26.414062 6.242188 " fill-opacity="1" fill-rule="nonzero"/><path fill="#000000" d="M 30.855469 11.621094 L 31.484375 11.230469 C 31.367188 11.039062 31.242188 10.847656 31.113281 10.664062 L 30.503906 11.085938 C 30.625 11.261719 30.742188 11.441406 30.855469 11.621094 Z M 30.855469 11.621094 " fill-opacity="1" fill-rule="nonzero"/><path fill="#000000" d="M 31.421875 12.609375 L 32.078125 12.269531 C 31.976562 12.070312 31.867188 11.871094 31.753906 11.675781 L 31.113281 12.046875 C 31.21875 12.230469 31.324219 12.421875 31.421875 12.609375 Z M 31.421875 12.609375 " fill-opacity="1" fill-rule="nonzero"/><path fill="#000000" d="M 30.214844 10.683594 L 30.8125 10.242188 C 30.679688 10.0625 30.539062 9.882812 30.398438 9.707031 L 29.820312 10.175781 C 29.957031 10.339844 30.089844 10.511719 30.214844 10.683594 Z M 30.214844 10.683594 " fill-opacity="1" fill-rule="nonzero"/><path fill="#000000" d="M 31.90625 13.640625 L 32.589844 13.351562 C 32.5 13.144531 32.40625 12.9375 32.3125 12.734375 L 31.640625 13.054688 C 31.734375 13.246094 31.824219 13.441406 31.90625 13.640625 Z M 31.90625 13.640625 " fill-opacity="1" fill-rule="nonzero"/><path fill="#000000" d="M 27.882812 8.199219 L 28.359375 7.632812 C 28.1875 7.488281 28.007812 7.347656 27.832031 7.210938 L 27.378906 7.796875 C 27.550781 7.925781 27.71875 8.0625 27.882812 8.199219 Z M 27.882812 8.199219 " fill-opacity="1" fill-rule="nonzero"/><path fill="#000000" d="M 28.722656 8.964844 L 29.242188 8.4375 C 29.082031 8.28125 28.917969 8.125 28.75 7.972656 L 28.253906 8.523438 C 28.414062 8.667969 28.570312 8.816406 28.722656 8.964844 Z M 28.722656 8.964844 " fill-opacity="1" fill-rule="nonzero"/><path fill="#000000" d="M 27.414062 6.898438 C 27.230469 6.769531 27.042969 6.640625 26.855469 6.519531 L 26.453125 7.140625 C 26.628906 7.257812 26.808594 7.378906 26.984375 7.503906 Z M 27.414062 6.898438 " fill-opacity="1" fill-rule="nonzero"/><path fill="#000000" d="M 29.503906 9.796875 L 30.0625 9.308594 C 29.914062 9.140625 29.761719 8.96875 29.609375 8.808594 L 29.070312 9.320312 C 29.21875 9.472656 29.363281 9.632812 29.503906 9.796875 Z M 29.503906 9.796875 " fill-opacity="1" fill-rule="nonzero"/><path fill="#000000" d="M 22.550781 17.269531 C 22.65625 17.171875 22.691406 17.019531 22.636719 16.890625 L 22.296875 16.066406 C 22.242188 15.9375 22.109375 15.851562 21.96875 15.859375 L 21.058594 15.90625 L 20.777344 15.625 L 20.824219 14.714844 C 20.832031 14.574219 20.75 14.441406 20.617188 14.386719 L 19.796875 14.046875 C 19.664062 13.992188 19.511719 14.027344 19.417969 14.132812 L 18.808594 14.808594 L 18.410156 14.808594 L 17.800781 14.132812 C 17.703125 14.027344 17.550781 13.992188 17.421875 14.046875 L 16.601562 14.386719 C 16.46875 14.441406 16.386719 14.574219 16.394531 14.714844 L 16.441406 15.625 L 16.15625 15.90625 L 15.25 15.859375 C 15.105469 15.851562 14.976562 15.9375 14.921875 16.066406 L 14.582031 16.890625 C 14.527344 17.019531 14.5625 17.171875 14.667969 17.269531 L 15.339844 17.878906 L 15.339844 18.277344 L 14.667969 18.886719 C 14.5625 18.980469 14.527344 19.132812 14.582031 19.265625 L 14.921875 20.085938 C 14.976562 20.21875 15.105469 20.300781 15.25 20.292969 L 16.15625 20.246094 L 16.441406 20.53125 L 16.394531 21.4375 C 16.386719 21.582031 16.46875 21.710938 16.601562 21.765625 L 17.421875 22.105469 C 17.550781 22.160156 17.703125 22.128906 17.800781 22.023438 L 18.410156 21.347656 L 18.808594 21.347656 L 19.417969 22.023438 C 19.484375 22.09375 19.574219 22.132812 19.667969 22.132812 C 19.710938 22.132812 19.753906 22.125 19.796875 22.105469 L 20.617188 21.765625 C 20.75 21.710938 20.832031 21.582031 20.824219 21.4375 L 20.777344 20.53125 L 21.058594 20.246094 L 21.96875 20.292969 C 22.109375 20.300781 22.242188 20.21875 22.296875 20.085938 L 22.636719 19.265625 C 22.691406 19.132812 22.65625 18.980469 22.550781 18.886719 L 21.875 18.277344 L 21.875 17.878906 Z M 21.3125 18.675781 L 21.921875 19.226562 L 21.765625 19.609375 L 20.945312 19.566406 C 20.851562 19.5625 20.757812 19.597656 20.691406 19.664062 L 20.195312 20.160156 C 20.128906 20.226562 20.09375 20.320312 20.097656 20.414062 L 20.140625 21.234375 L 19.757812 21.394531 L 19.207031 20.785156 C 19.144531 20.714844 19.054688 20.671875 18.957031 20.671875 L 18.257812 20.671875 C 18.164062 20.671875 18.074219 20.714844 18.007812 20.785156 L 17.457031 21.394531 L 17.078125 21.234375 L 17.121094 20.414062 C 17.125 20.320312 17.089844 20.226562 17.023438 20.160156 L 16.527344 19.664062 C 16.460938 19.597656 16.367188 19.5625 16.273438 19.566406 L 15.453125 19.609375 L 15.292969 19.226562 L 15.902344 18.675781 C 15.972656 18.613281 16.015625 18.523438 16.015625 18.425781 L 16.015625 17.726562 C 16.015625 17.632812 15.972656 17.542969 15.902344 17.476562 L 15.292969 16.925781 L 15.453125 16.546875 L 16.273438 16.589844 C 16.367188 16.59375 16.460938 16.558594 16.527344 16.488281 L 17.023438 15.996094 C 17.089844 15.925781 17.125 15.835938 17.121094 15.738281 L 17.078125 14.917969 L 17.457031 14.761719 L 18.007812 15.371094 C 18.074219 15.441406 18.164062 15.480469 18.257812 15.480469 L 18.957031 15.480469 C 19.054688 15.480469 19.144531 15.441406 19.207031 15.371094 L 19.757812 14.761719 L 20.140625 14.917969 L 20.097656 15.738281 C 20.09375 15.835938 20.128906 15.925781 20.195312 15.996094 L 20.691406 16.488281 C 20.757812 16.558594 20.851562 16.59375 20.945312 16.589844 L 21.765625 16.546875 L 21.921875 16.925781 L 21.3125 17.476562 C 21.242188 17.542969 21.203125 17.632812 21.203125 17.726562 L 21.203125 18.425781 C 21.203125 18.523438 21.242188 18.613281 21.3125 18.675781 Z M 21.3125 18.675781 " fill-opacity="1" fill-rule="nonzero"/><path fill="#000000" d="M 18.609375 16.222656 C 17.585938 16.222656 16.753906 17.054688 16.753906 18.078125 C 16.753906 19.101562 17.585938 19.933594 18.609375 19.933594 C 19.632812 19.933594 20.460938 19.101562 20.460938 18.078125 C 20.460938 17.054688 19.632812 16.222656 18.609375 16.222656 Z M 18.609375 19.257812 C 17.957031 19.257812 17.429688 18.730469 17.429688 18.078125 C 17.429688 17.425781 17.957031 16.894531 18.609375 16.894531 C 19.257812 16.894531 19.789062 17.425781 19.789062 18.078125 C 19.789062 18.730469 19.257812 19.257812 18.609375 19.257812 Z M 18.609375 19.257812 " fill-opacity="1" fill-rule="nonzero"/></svg>