<svg xmlns="http://www.w3.org/2000/svg" xmlns:xlink="http://www.w3.org/1999/xlink" width="50" zoomAndPan="magnify" viewBox="0 0 37.5 37.499999" height="50" preserveAspectRatio="xMidYMid meet" version="1.0"><defs><clipPath id="4cb194d129"><path d="M 0 0.183594 L 37.007812 0.183594 L 37.007812 37.007812 L 0 37.007812 Z M 0 0.183594 " clip-rule="nonzero"/></clipPath></defs><g clip-path="url(#4cb194d129)"><path fill="#000000" d="M 4.03125 17.316406 C 4.109375 17.316406 4.1875 17.296875 4.265625 17.261719 C 4.503906 17.140625 4.617188 16.851562 4.519531 16.597656 C 3.425781 13.703125 4.199219 9.519531 9.542969 6.300781 L 9.988281 7.09375 C 10.082031 7.253906 10.25 7.355469 10.433594 7.359375 C 10.4375 7.359375 10.441406 7.359375 10.441406 7.359375 C 10.625 7.359375 10.792969 7.265625 10.890625 7.105469 L 14.390625 1.324219 C 14.484375 1.164062 14.492188 0.964844 14.40625 0.800781 C 14.320312 0.632812 14.152344 0.527344 13.96875 0.519531 L 7.03125 0.1875 C 6.839844 0.179688 6.660156 0.273438 6.558594 0.4375 C 6.460938 0.601562 6.457031 0.808594 6.550781 0.976562 L 7.097656 1.949219 C 4.269531 3.726562 2.511719 5.945312 1.875 8.546875 C 1.214844 11.242188 1.808594 14.1875 3.585938 17.066406 C 3.683594 17.226562 3.855469 17.316406 4.03125 17.316406 Z M 2.890625 8.800781 C 3.488281 6.355469 5.230469 4.265625 8.066406 2.59375 C 8.316406 2.445312 8.402344 2.128906 8.257812 1.875 L 7.929688 1.289062 L 13.035156 1.53125 L 10.457031 5.792969 L 10.191406 5.316406 C 10.046875 5.066406 9.730469 4.976562 9.480469 5.117188 C 6.5625 6.765625 4.605469 8.804688 3.660156 11.175781 C 3.355469 11.933594 3.164062 12.71875 3.089844 13.5 C 2.660156 12.085938 2.480469 10.476562 2.890625 8.800781 Z M 32.480469 21.492188 C 32.101562 20.828125 31.472656 20.398438 30.78125 20.257812 C 29.921875 18.414062 28.335938 16.980469 26.402344 16.332031 C 27.636719 15.546875 28.457031 14.160156 28.457031 12.582031 C 28.457031 10.140625 26.492188 8.15625 24.074219 8.15625 C 21.65625 8.15625 19.6875 10.140625 19.6875 12.582031 C 19.6875 14.160156 20.511719 15.546875 21.746094 16.332031 C 20.664062 16.695312 19.691406 17.304688 18.890625 18.09375 C 18.019531 17.058594 16.878906 16.269531 15.578125 15.832031 C 16.8125 15.050781 17.632812 13.660156 17.632812 12.082031 C 17.632812 9.640625 15.667969 7.65625 13.25 7.65625 C 10.832031 7.65625 8.863281 9.640625 8.863281 12.082031 C 8.863281 13.660156 9.6875 15.046875 10.921875 15.832031 C 8.152344 16.761719 6.101562 19.292969 5.859375 22.335938 L 5.644531 21.960938 L 5.636719 21.945312 C 5.636719 21.945312 5.632812 21.941406 5.632812 21.9375 L 5.164062 21.117188 C 5.019531 20.867188 4.699219 20.78125 4.449219 20.925781 L 0.261719 23.367188 C 0.0117188 23.515625 -0.0742188 23.839844 0.0703125 24.089844 L 5.539062 33.660156 L 5.546875 33.675781 C 5.550781 33.679688 5.550781 33.683594 5.554688 33.683594 L 6.023438 34.503906 C 6.121094 34.671875 6.292969 34.765625 6.476562 34.765625 C 6.5625 34.765625 6.652344 34.742188 6.738281 34.695312 L 10.921875 32.253906 C 11.042969 32.183594 11.132812 32.070312 11.167969 31.933594 C 11.203125 31.796875 11.183594 31.652344 11.117188 31.53125 L 10.191406 29.914062 C 10.605469 29.800781 11.007812 29.742188 11.359375 29.816406 L 18.257812 31.683594 C 18.527344 31.757812 18.800781 31.792969 19.070312 31.792969 C 19.613281 31.792969 20.148438 31.648438 20.632812 31.367188 L 31.550781 25 C 32.765625 24.289062 33.183594 22.714844 32.480469 21.492188 Z M 20.734375 12.582031 C 20.734375 10.726562 22.234375 9.214844 24.074219 9.214844 C 25.914062 9.214844 27.410156 10.726562 27.410156 12.582031 C 27.410156 14.441406 25.914062 15.953125 24.074219 15.953125 C 22.234375 15.953125 20.734375 14.441406 20.734375 12.582031 Z M 24.074219 17.011719 C 26.453125 17.011719 28.527344 18.335938 29.621094 20.292969 C 29.410156 20.347656 29.203125 20.433594 29.007812 20.546875 L 21.421875 24.972656 C 21.449219 24.898438 21.472656 24.824219 21.492188 24.746094 C 21.820312 23.511719 21.09375 22.238281 19.871094 21.90625 L 18.035156 21.40625 C 18.878906 18.855469 21.265625 17.011719 24.074219 17.011719 Z M 9.910156 12.082031 C 9.910156 10.226562 11.410156 8.714844 13.25 8.714844 C 15.089844 8.714844 16.585938 10.226562 16.585938 12.082031 C 16.585938 13.941406 15.089844 15.453125 13.25 15.453125 C 11.410156 15.453125 9.910156 13.941406 9.910156 12.082031 Z M 13.25 16.511719 C 15.242188 16.511719 17.019531 17.441406 18.191406 18.890625 C 17.683594 19.558594 17.285156 20.316406 17.019531 21.132812 L 12.371094 19.875 C 11.691406 19.65625 10.863281 19.742188 10.257812 20.097656 L 6.949219 22.027344 C 7.390625 18.914062 10.046875 16.511719 13.25 16.511719 Z M 6.664062 33.515625 L 6.460938 33.160156 L 6.453125 33.144531 C 6.449219 33.140625 6.449219 33.140625 6.449219 33.136719 L 1.238281 24.019531 L 4.519531 22.105469 L 4.722656 22.464844 L 4.734375 22.480469 C 4.734375 22.480469 4.734375 22.484375 4.738281 22.488281 L 9.945312 31.601562 Z M 31.027344 24.085938 L 20.109375 30.449219 C 19.625 30.734375 19.066406 30.808594 18.53125 30.664062 L 11.621094 28.792969 C 11.613281 28.792969 11.605469 28.789062 11.597656 28.789062 C 11.40625 28.746094 11.210938 28.726562 11.019531 28.726562 C 10.558594 28.726562 10.097656 28.832031 9.652344 28.972656 L 6.523438 23.496094 L 10.78125 21.011719 C 11.136719 20.804688 11.660156 20.753906 12.058594 20.882812 C 12.066406 20.886719 12.078125 20.890625 12.085938 20.894531 L 19.597656 22.925781 C 20.265625 23.105469 20.660156 23.800781 20.480469 24.472656 C 20.308594 25.132812 19.648438 25.507812 18.980469 25.328125 C 18.976562 25.328125 18.96875 25.328125 18.964844 25.328125 L 13.332031 23.820312 C 13.050781 23.746094 12.765625 23.914062 12.691406 24.195312 C 12.617188 24.476562 12.785156 24.765625 13.0625 24.839844 L 18.734375 26.359375 C 18.734375 26.359375 18.738281 26.359375 18.742188 26.359375 L 19.613281 26.59375 C 20.273438 26.769531 20.652344 26.640625 21.523438 26.136719 L 29.53125 21.464844 C 30.246094 21.046875 31.164062 21.296875 31.574219 22.019531 C 31.988281 22.742188 31.742188 23.667969 31.027344 24.085938 Z M 19.824219 5.140625 C 22.6875 4.035156 26.832031 4.8125 30.015625 10.214844 L 29.230469 10.664062 C 29.070312 10.757812 28.972656 10.929688 28.96875 11.117188 C 28.964844 11.304688 29.0625 11.480469 29.21875 11.578125 L 34.945312 15.109375 C 35.027344 15.164062 35.125 15.1875 35.21875 15.1875 C 35.300781 15.1875 35.386719 15.167969 35.464844 15.125 C 35.625 15.039062 35.730469 14.871094 35.742188 14.683594 L 36.070312 7.679688 C 36.078125 7.484375 35.984375 7.304688 35.820312 7.203125 C 35.660156 7.101562 35.453125 7.097656 35.289062 7.191406 L 34.324219 7.746094 C 32.566406 4.886719 30.367188 3.113281 27.792969 2.46875 C 25.125 1.804688 22.207031 2.402344 19.359375 4.199219 C 19.128906 4.34375 19.046875 4.640625 19.167969 4.882812 C 19.285156 5.128906 19.570312 5.238281 19.824219 5.140625 Z M 27.539062 3.496094 C 29.964844 4.101562 32.03125 5.859375 33.6875 8.726562 C 33.832031 8.976562 34.148438 9.0625 34.398438 8.917969 L 34.980469 8.585938 L 34.738281 13.742188 L 30.519531 11.140625 L 30.992188 10.871094 C 31.242188 10.726562 31.328125 10.40625 31.1875 10.152344 C 29.558594 7.207031 27.539062 5.226562 25.191406 4.269531 C 24.441406 3.964844 23.667969 3.773438 22.894531 3.695312 C 24.292969 3.261719 25.882812 3.082031 27.539062 3.496094 Z M 36.730469 22.625 C 36.679688 22.359375 36.433594 22.175781 36.164062 22.199219 C 35.898438 22.226562 35.691406 22.453125 35.691406 22.726562 C 35.691406 25.824219 33.492188 29.453125 27.359375 30.53125 L 27.222656 29.632812 C 27.195312 29.445312 27.074219 29.289062 26.902344 29.222656 C 26.726562 29.152344 26.53125 29.179688 26.386719 29.292969 L 21.070312 33.429688 C 20.925781 33.542969 20.847656 33.726562 20.871094 33.914062 C 20.894531 34.097656 21.011719 34.257812 21.179688 34.332031 L 27.542969 37.148438 C 27.609375 37.179688 27.679688 37.195312 27.753906 37.195312 C 27.867188 37.195312 27.976562 37.15625 28.070312 37.085938 C 28.222656 36.96875 28.296875 36.777344 28.269531 36.585938 L 28.105469 35.476562 C 31.375 34.839844 33.800781 33.402344 35.316406 31.199219 C 36.882812 28.921875 37.371094 25.957031 36.730469 22.625 Z M 34.457031 30.597656 C 33.03125 32.667969 30.664062 33.988281 27.425781 34.527344 C 27.144531 34.574219 26.949219 34.839844 26.992188 35.128906 L 27.09375 35.796875 L 22.410156 33.722656 L 26.324219 30.675781 L 26.40625 31.214844 C 26.449219 31.503906 26.714844 31.699219 26.996094 31.660156 C 30.304688 31.171875 32.855469 29.976562 34.578125 28.105469 C 35.132812 27.503906 35.585938 26.84375 35.929688 26.140625 C 35.832031 27.617188 35.429688 29.179688 34.457031 30.597656 Z M 34.457031 30.597656 " fill-opacity="1" fill-rule="nonzero"/></g></svg>