<svg xmlns="http://www.w3.org/2000/svg" xmlns:xlink="http://www.w3.org/1999/xlink" width="50" zoomAndPan="magnify" viewBox="0 0 37.5 37.499999" height="50" preserveAspectRatio="xMidYMid meet" version="1.0"><defs><clipPath id="0e6c13f6d8"><path d="M 0 0 L 37.007812 0 L 37.007812 37 L 0 37 Z M 0 0 " clip-rule="nonzero"/></clipPath></defs><g clip-path="url(#0e6c13f6d8)"><path fill="#000000" d="M 10.648438 0.0117188 L 26.367188 0.0117188 C 29.292969 0.0117188 31.953125 1.203125 33.886719 3.117188 C 35.820312 5.035156 37.019531 7.679688 37.019531 10.585938 L 37.019531 26.417969 C 37.019531 29.320312 35.820312 31.960938 33.890625 33.878906 L 33.886719 33.882812 C 31.949219 35.800781 29.289062 36.988281 26.371094 36.988281 L 10.648438 36.988281 C 7.722656 36.988281 5.058594 35.796875 3.128906 33.882812 L 3.054688 33.800781 C 1.167969 31.894531 0 29.28125 0 26.414062 L 0 10.585938 C 0 7.675781 1.195312 5.035156 3.128906 3.117188 C 5.058594 1.199219 7.71875 0.0117188 10.648438 0.0117188 Z M 27.734375 9.347656 L 27.757812 9.378906 L 34.304688 9.378906 C 34.039062 7.671875 33.21875 6.136719 32.035156 4.957031 C 30.582031 3.515625 28.574219 2.617188 26.367188 2.617188 L 23.679688 2.617188 Z M 24.707031 9.378906 L 20.632812 2.617188 L 11.691406 2.617188 L 15.816406 9.378906 Z M 12.761719 9.378906 L 8.773438 2.835938 C 7.316406 3.1875 6.011719 3.9375 4.984375 4.957031 C 3.800781 6.132812 2.980469 7.671875 2.714844 9.378906 Z M 34.394531 11.984375 L 2.625 11.984375 L 2.625 26.417969 C 2.625 28.574219 3.5 30.539062 4.917969 31.980469 L 4.984375 32.042969 C 6.4375 33.484375 8.445312 34.386719 10.648438 34.386719 L 26.367188 34.386719 C 28.574219 34.386719 30.582031 33.488281 32.03125 32.046875 L 32.039062 32.042969 C 33.492188 30.601562 34.394531 28.609375 34.394531 26.417969 Z M 15.441406 16.546875 L 23.574219 21.796875 C 23.703125 21.882812 23.824219 21.992188 23.917969 22.125 C 24.285156 22.65625 24.148438 23.386719 23.613281 23.753906 L 15.515625 28.5 C 15.3125 28.664062 15.050781 28.765625 14.761719 28.765625 C 14.109375 28.765625 13.578125 28.238281 13.578125 27.589844 L 13.578125 17.511719 L 13.585938 17.511719 C 13.585938 17.277344 13.652344 17.042969 13.796875 16.839844 C 14.171875 16.304688 14.910156 16.175781 15.441406 16.546875 Z M 15.441406 16.546875 " fill-opacity="1" fill-rule="nonzero"/></g></svg>